<mxfile host="app.diagrams.net" agent="Mozilla/5.0 (Windows NT 10.0; Win64; x64) AppleWebKit/537.36 (KHTML, like Gecko) Chrome/140.0.0.0 Safari/537.36 Edg/140.0.0.0" version="28.2.5">
  <diagram name="Page-1" id="LKmGN3flTx39L14AyUor">
    <mxGraphModel dx="7584" dy="2915" grid="1" gridSize="10" guides="1" tooltips="1" connect="1" arrows="1" fold="1" page="1" pageScale="1" pageWidth="827" pageHeight="1169" math="0" shadow="0">
      <root>
        <mxCell id="0" />
        <mxCell id="1" parent="0" />
        <mxCell id="ji7oat9t6ZDJD498M_jr-2" value="&lt;b&gt;STELLAIRE&lt;/b&gt;" style="rounded=1;whiteSpace=wrap;html=1;verticalAlign=top;align=center;arcSize=0;fontSize=20;spacingLeft=0;fillColor=#f9f7ed;strokeColor=#36393d;" vertex="1" parent="1">
          <mxGeometry x="2980" y="1240" width="1280" height="630" as="geometry" />
        </mxCell>
        <mxCell id="ji7oat9t6ZDJD498M_jr-260" value="Somewhere on the earth" style="rounded=0;whiteSpace=wrap;html=1;fillColor=#fff2cc;strokeColor=#d6b656;align=left;verticalAlign=top;" vertex="1" parent="1">
          <mxGeometry x="3959.31" y="1660" width="260.69" height="188.14" as="geometry" />
        </mxCell>
        <mxCell id="ji7oat9t6ZDJD498M_jr-261" value="GCP" style="rounded=0;whiteSpace=wrap;html=1;align=center;verticalAlign=top;fillColor=#dae8fc;strokeColor=#6c8ebf;" vertex="1" parent="1">
          <mxGeometry x="3020" y="1282.22" width="939.31" height="566" as="geometry" />
        </mxCell>
        <mxCell id="ji7oat9t6ZDJD498M_jr-236" value="Other projects" style="whiteSpace=wrap;html=1;verticalAlign=top;fillColor=#f9f7ed;strokeColor=#36393d;fontSize=20;" vertex="1" parent="1">
          <mxGeometry x="2980" y="1881" width="1280" height="339" as="geometry" />
        </mxCell>
        <mxCell id="ji7oat9t6ZDJD498M_jr-184" value="&lt;b&gt;CROCUS&lt;/b&gt;" style="rounded=1;whiteSpace=wrap;html=1;verticalAlign=top;align=center;arcSize=0;fontSize=20;spacingLeft=0;fillColor=#f9f7ed;strokeColor=#36393d;" vertex="1" parent="1">
          <mxGeometry x="750" y="1240" width="2200" height="980" as="geometry" />
        </mxCell>
        <mxCell id="ji7oat9t6ZDJD498M_jr-3" value="&lt;div&gt;&lt;font&gt;&lt;u style=&quot;&quot;&gt;&lt;font style=&quot;color: light-dark(rgb(51, 153, 255), rgb(51, 153, 255));&quot;&gt;&lt;font&gt;Cloud SQL&lt;/font&gt;&lt;br&gt;&lt;/font&gt;&lt;/u&gt;&lt;font style=&quot;color: rgb(0, 0, 0);&quot;&gt;(PostgresSQL)&lt;/font&gt;&lt;/font&gt;&lt;/div&gt;" style="rounded=1;whiteSpace=wrap;html=1;verticalAlign=top;arcSize=4;" vertex="1" parent="1">
          <mxGeometry x="3184.84" y="1571.2900000000002" width="196.04" height="110" as="geometry" />
        </mxCell>
        <mxCell id="ji7oat9t6ZDJD498M_jr-10" style="edgeStyle=orthogonalEdgeStyle;rounded=0;orthogonalLoop=1;jettySize=auto;html=1;strokeColor=#009900;" edge="1" parent="1" source="ji7oat9t6ZDJD498M_jr-11" target="ji7oat9t6ZDJD498M_jr-13">
          <mxGeometry relative="1" as="geometry" />
        </mxCell>
        <mxCell id="ji7oat9t6ZDJD498M_jr-11" value="MÃ©tier&lt;div&gt;(interne)&lt;/div&gt;" style="image;sketch=0;aspect=fixed;html=1;points=[];align=center;fontSize=12;image=img/lib/mscae/Person.svg;labelBackgroundColor=none;" vertex="1" parent="1">
          <mxGeometry x="4160.000000000001" y="1741.54" width="37" height="50" as="geometry" />
        </mxCell>
        <mxCell id="ji7oat9t6ZDJD498M_jr-12" style="edgeStyle=orthogonalEdgeStyle;rounded=0;orthogonalLoop=1;jettySize=auto;html=1;strokeColor=#009900;entryX=1;entryY=0.5;entryDx=0;entryDy=0;" edge="1" parent="1" source="ji7oat9t6ZDJD498M_jr-13" target="ji7oat9t6ZDJD498M_jr-27">
          <mxGeometry relative="1" as="geometry">
            <mxPoint x="3639.1600000000003" y="1773.896190476191" as="targetPoint" />
          </mxGeometry>
        </mxCell>
        <mxCell id="ji7oat9t6ZDJD498M_jr-13" value="browser" style="verticalLabelPosition=bottom;html=1;verticalAlign=top;align=center;strokeColor=#36393d;fillColor=#eeeeee;shape=mxgraph.azure.computer;pointerEvents=1;" vertex="1" parent="1">
          <mxGeometry x="3979.9999999999995" y="1737.29" width="66.67" height="60" as="geometry" />
        </mxCell>
        <mxCell id="ji7oat9t6ZDJD498M_jr-14" value="&lt;font style=&quot;color: rgb(51, 153, 255);&quot;&gt;&lt;u&gt;CR&lt;br&gt;&lt;/u&gt;&lt;/font&gt;Backend&lt;div&gt;(Python)&lt;/div&gt;" style="rounded=1;whiteSpace=wrap;html=1;" vertex="1" parent="1">
          <mxGeometry x="3222" y="1732.54" width="120" height="70" as="geometry" />
        </mxCell>
        <mxCell id="ji7oat9t6ZDJD498M_jr-15" value="CRUD" style="text;html=1;align=center;verticalAlign=middle;resizable=0;points=[];autosize=1;strokeColor=none;fillColor=none;" vertex="1" parent="1">
          <mxGeometry x="3275.0000000000005" y="1691.0000000000002" width="60" height="30" as="geometry" />
        </mxCell>
        <mxCell id="ji7oat9t6ZDJD498M_jr-16" value="call" style="text;html=1;align=center;verticalAlign=middle;resizable=0;points=[];autosize=1;strokeColor=none;fillColor=none;" vertex="1" parent="1">
          <mxGeometry x="3395.96" y="1740" width="40" height="30" as="geometry" />
        </mxCell>
        <mxCell id="ji7oat9t6ZDJD498M_jr-17" value="respond" style="text;html=1;align=center;verticalAlign=middle;resizable=0;points=[];autosize=1;strokeColor=none;fillColor=none;" vertex="1" parent="1">
          <mxGeometry x="3380.96" y="1762.71" width="70" height="30" as="geometry" />
        </mxCell>
        <mxCell id="ji7oat9t6ZDJD498M_jr-27" value="&lt;div&gt;&lt;font style=&quot;color: rgb(51, 153, 255);&quot;&gt;&lt;u&gt;CR&lt;/u&gt;&lt;/font&gt;&lt;/div&gt;&lt;div&gt;Frontend&lt;/div&gt;&lt;div&gt;(React)&lt;/div&gt;" style="rounded=1;whiteSpace=wrap;html=1;" vertex="1" parent="1">
          <mxGeometry x="3499" y="1732.29" width="120" height="70" as="geometry" />
        </mxCell>
        <mxCell id="ji7oat9t6ZDJD498M_jr-28" style="edgeStyle=orthogonalEdgeStyle;rounded=0;orthogonalLoop=1;jettySize=auto;html=1;startArrow=classic;startFill=1;strokeColor=#009900;" edge="1" parent="1" source="ji7oat9t6ZDJD498M_jr-27" target="ji7oat9t6ZDJD498M_jr-14">
          <mxGeometry relative="1" as="geometry" />
        </mxCell>
        <mxCell id="ji7oat9t6ZDJD498M_jr-30" value="&lt;u style=&quot;color: rgb(51, 153, 255); font-size: 13px;&quot;&gt;Cloud Storage&lt;/u&gt;&lt;br&gt;&lt;div&gt;&lt;span style=&quot;background-color: transparent; color: light-dark(rgb(0, 0, 0), rgb(255, 255, 255));&quot;&gt;&lt;br&gt;&lt;/span&gt;&lt;/div&gt;&lt;div&gt;&lt;span style=&quot;background-color: transparent; color: light-dark(rgb(0, 0, 0), rgb(255, 255, 255));&quot;&gt;- stock files for&amp;nbsp;&lt;/span&gt;&lt;span style=&quot;background-color: transparent; color: light-dark(rgb(0, 0, 0), rgb(255, 255, 255));&quot;&gt;CROCUS and Credit Reseau&lt;/span&gt;&lt;/div&gt;&lt;div&gt;&lt;span style=&quot;text-wrap-mode: nowrap;&quot;&gt;(garder les fichiers pendant 2 ans)&lt;/span&gt;&lt;span style=&quot;background-color: transparent; color: light-dark(rgb(0, 0, 0), rgb(255, 255, 255));&quot;&gt;&lt;/span&gt;&lt;/div&gt;" style="rounded=1;whiteSpace=wrap;html=1;align=center;" vertex="1" parent="1">
          <mxGeometry x="3547.07" y="1579.8200000000002" width="310" height="76.38" as="geometry" />
        </mxCell>
        <mxCell id="ji7oat9t6ZDJD498M_jr-31" style="edgeStyle=orthogonalEdgeStyle;rounded=0;orthogonalLoop=1;jettySize=auto;html=1;strokeColor=#009900;" edge="1" parent="1" source="ji7oat9t6ZDJD498M_jr-32" target="ji7oat9t6ZDJD498M_jr-72">
          <mxGeometry relative="1" as="geometry">
            <mxPoint x="3407.925925925926" y="1360" as="sourcePoint" />
            <Array as="points">
              <mxPoint x="3470" y="1410" />
              <mxPoint x="3278" y="1410" />
            </Array>
          </mxGeometry>
        </mxCell>
        <mxCell id="ji7oat9t6ZDJD498M_jr-254" style="edgeStyle=orthogonalEdgeStyle;rounded=0;orthogonalLoop=1;jettySize=auto;html=1;strokeColor=#009900;" edge="1" parent="1" source="ji7oat9t6ZDJD498M_jr-32" target="ji7oat9t6ZDJD498M_jr-252">
          <mxGeometry relative="1" as="geometry">
            <mxPoint x="3489.9959259259263" y="1360" as="sourcePoint" />
            <Array as="points">
              <mxPoint x="3470" y="1410" />
              <mxPoint x="3702" y="1410" />
            </Array>
          </mxGeometry>
        </mxCell>
        <mxCell id="ji7oat9t6ZDJD498M_jr-32" value="&lt;font color=&quot;#3399ff&quot;&gt;&lt;u&gt;Cloud Scheduler&lt;/u&gt;&lt;/font&gt;&lt;div&gt;&lt;div style=&quot;text-align: left;&quot;&gt;&lt;br&gt;&lt;/div&gt;&lt;div style=&quot;text-align: left;&quot;&gt;- transfer data&lt;span style=&quot;background-color: transparent; color: light-dark(rgb(0, 0, 0), rgb(255, 255, 255));&quot;&gt;&lt;/span&gt;&lt;/div&gt;&lt;div style=&quot;text-align: left;&quot;&gt;&lt;span style=&quot;background-color: transparent; color: light-dark(rgb(0, 0, 0), rgb(255, 255, 255));&quot;&gt;- generate files&amp;nbsp;&lt;/span&gt;&lt;/div&gt;&lt;/div&gt;" style="rounded=1;whiteSpace=wrap;html=1;" vertex="1" parent="1">
          <mxGeometry x="3390.0000000000005" y="1320" width="155.84" height="70" as="geometry" />
        </mxCell>
        <mxCell id="ji7oat9t6ZDJD498M_jr-57" style="edgeStyle=orthogonalEdgeStyle;rounded=0;orthogonalLoop=1;jettySize=auto;html=1;startArrow=classic;startFill=1;strokeColor=#009900;exitX=0.5;exitY=1;exitDx=0;exitDy=0;" edge="1" parent="1" target="ji7oat9t6ZDJD498M_jr-14">
          <mxGeometry relative="1" as="geometry">
            <Array as="points">
              <mxPoint x="3283" y="1720" />
              <mxPoint x="3283" y="1720" />
            </Array>
            <mxPoint x="3282.86" y="1661.2900000000002" as="sourcePoint" />
            <mxPoint x="3286" y="1741.54" as="targetPoint" />
          </mxGeometry>
        </mxCell>
        <mxCell id="ji7oat9t6ZDJD498M_jr-58" value="database" style="rounded=1;whiteSpace=wrap;html=1;" vertex="1" parent="1">
          <mxGeometry x="3214.11" y="1625.2900000000002" width="137.5" height="36" as="geometry" />
        </mxCell>
        <mxCell id="ji7oat9t6ZDJD498M_jr-61" value="(11)" style="text;html=1;align=center;verticalAlign=middle;resizable=0;points=[];autosize=1;strokeColor=none;fillColor=none;" vertex="1" parent="1">
          <mxGeometry x="3295" y="1380" width="40" height="30" as="geometry" />
        </mxCell>
        <mxCell id="ji7oat9t6ZDJD498M_jr-62" value="(14)&lt;div&gt;modify data&lt;/div&gt;" style="text;html=1;align=center;verticalAlign=middle;resizable=0;points=[];autosize=1;strokeColor=none;fillColor=none;" vertex="1" parent="1">
          <mxGeometry x="4055.0000000000005" y="1745.04" width="90" height="40" as="geometry" />
        </mxCell>
        <mxCell id="ji7oat9t6ZDJD498M_jr-63" value="trigger" style="text;html=1;align=center;verticalAlign=middle;resizable=0;points=[];autosize=1;strokeColor=none;fillColor=none;" vertex="1" parent="1">
          <mxGeometry x="3321.62" y="1380" width="60" height="30" as="geometry" />
        </mxCell>
        <mxCell id="ji7oat9t6ZDJD498M_jr-64" value="load data in database" style="text;html=1;align=center;verticalAlign=middle;resizable=0;points=[];autosize=1;strokeColor=none;fillColor=none;" vertex="1" parent="1">
          <mxGeometry x="3040" y="1647" width="140" height="30" as="geometry" />
        </mxCell>
        <mxCell id="ji7oat9t6ZDJD498M_jr-68" style="edgeStyle=orthogonalEdgeStyle;rounded=0;orthogonalLoop=1;jettySize=auto;html=1;strokeColor=#009900;" edge="1" parent="1" source="ji7oat9t6ZDJD498M_jr-72" target="ji7oat9t6ZDJD498M_jr-58">
          <mxGeometry relative="1" as="geometry">
            <Array as="points">
              <mxPoint x="3090" y="1490" />
              <mxPoint x="3090" y="1650" />
            </Array>
          </mxGeometry>
        </mxCell>
        <mxCell id="ji7oat9t6ZDJD498M_jr-70" style="edgeStyle=orthogonalEdgeStyle;rounded=0;orthogonalLoop=1;jettySize=auto;html=1;entryX=0.5;entryY=0;entryDx=0;entryDy=0;strokeColor=#009900;" edge="1" parent="1" source="ji7oat9t6ZDJD498M_jr-252" target="ji7oat9t6ZDJD498M_jr-30">
          <mxGeometry relative="1" as="geometry">
            <Array as="points">
              <mxPoint x="3702.07" y="1546" />
            </Array>
          </mxGeometry>
        </mxCell>
        <mxCell id="ji7oat9t6ZDJD498M_jr-71" style="edgeStyle=orthogonalEdgeStyle;rounded=0;orthogonalLoop=1;jettySize=auto;html=1;strokeColor=#009900;exitX=0;exitY=0.5;exitDx=0;exitDy=0;" edge="1" parent="1" source="ji7oat9t6ZDJD498M_jr-252" target="ji7oat9t6ZDJD498M_jr-3">
          <mxGeometry relative="1" as="geometry">
            <mxPoint x="3128.4951851851847" y="1378.38" as="sourcePoint" />
            <mxPoint x="3074.272962962963" y="1656.38" as="targetPoint" />
            <Array as="points">
              <mxPoint x="3500" y="1470" />
              <mxPoint x="3500" y="1626" />
            </Array>
          </mxGeometry>
        </mxCell>
        <mxCell id="ji7oat9t6ZDJD498M_jr-72" value="&lt;u style=&quot;color: rgb(51, 153, 255);&quot;&gt;GCF&lt;/u&gt;&lt;br&gt;&lt;div style=&quot;text-align: left;&quot;&gt;&lt;br&gt;&lt;/div&gt;&lt;div style=&quot;text-align: left;&quot;&gt;- python script to transfer data from BQ to Cloud SQL&lt;/div&gt;" style="rounded=1;whiteSpace=wrap;html=1;" vertex="1" parent="1">
          <mxGeometry x="3118" y="1434.5" width="320" height="70" as="geometry" />
        </mxCell>
        <mxCell id="ji7oat9t6ZDJD498M_jr-73" value="get data from dataset" style="text;html=1;align=center;verticalAlign=middle;resizable=0;points=[];autosize=1;strokeColor=none;fillColor=none;" vertex="1" parent="1">
          <mxGeometry x="2980" y="1455.11" width="140" height="30" as="geometry" />
        </mxCell>
        <mxCell id="ji7oat9t6ZDJD498M_jr-74" value="generate files" style="text;html=1;align=center;verticalAlign=middle;resizable=0;points=[];autosize=1;strokeColor=none;fillColor=none;" vertex="1" parent="1">
          <mxGeometry x="3696.7400000000007" y="1524.92" width="100" height="30" as="geometry" />
        </mxCell>
        <mxCell id="ji7oat9t6ZDJD498M_jr-75" value="(12)" style="text;html=1;align=center;verticalAlign=middle;resizable=0;points=[];autosize=1;strokeColor=none;fillColor=none;" vertex="1" parent="1">
          <mxGeometry x="2980" y="1434.5" width="40" height="30" as="geometry" />
        </mxCell>
        <mxCell id="ji7oat9t6ZDJD498M_jr-76" value="(13)" style="text;html=1;align=center;verticalAlign=middle;resizable=0;points=[];autosize=1;strokeColor=none;fillColor=none;" vertex="1" parent="1">
          <mxGeometry x="3090" y="1618.99" width="40" height="30" as="geometry" />
        </mxCell>
        <mxCell id="ji7oat9t6ZDJD498M_jr-77" value="(14.1)" style="text;html=1;align=center;verticalAlign=middle;resizable=0;points=[];autosize=1;strokeColor=none;fillColor=none;" vertex="1" parent="1">
          <mxGeometry x="3234.3499999999995" y="1691.0000000000002" width="50" height="30" as="geometry" />
        </mxCell>
        <mxCell id="ji7oat9t6ZDJD498M_jr-78" value="(15)" style="text;html=1;align=center;verticalAlign=middle;resizable=0;points=[];autosize=1;strokeColor=none;fillColor=none;" vertex="1" parent="1">
          <mxGeometry x="3566.51" y="1380" width="40" height="30" as="geometry" />
        </mxCell>
        <mxCell id="ji7oat9t6ZDJD498M_jr-79" value="(16)" style="text;html=1;align=center;verticalAlign=middle;resizable=0;points=[];autosize=1;strokeColor=none;fillColor=none;" vertex="1" parent="1">
          <mxGeometry x="3463" y="1520.0000000000002" width="40" height="30" as="geometry" />
        </mxCell>
        <mxCell id="ji7oat9t6ZDJD498M_jr-80" value="(17)" style="text;html=1;align=center;verticalAlign=middle;resizable=0;points=[];autosize=1;strokeColor=none;fillColor=none;" vertex="1" parent="1">
          <mxGeometry x="3667.6500000000005" y="1527.17" width="40" height="30" as="geometry" />
        </mxCell>
        <mxCell id="ji7oat9t6ZDJD498M_jr-81" value="transfer files" style="text;html=1;align=center;verticalAlign=middle;resizable=0;points=[];autosize=1;strokeColor=none;fillColor=none;" vertex="1" parent="1">
          <mxGeometry x="3869.3100000000004" y="1609.29" width="90" height="30" as="geometry" />
        </mxCell>
        <mxCell id="ji7oat9t6ZDJD498M_jr-82" value="NiFi" style="text;html=1;align=center;verticalAlign=middle;resizable=0;points=[];autosize=1;strokeColor=none;fillColor=none;" vertex="1" parent="1">
          <mxGeometry x="3894.3100000000004" y="1580.2199999999998" width="40" height="30" as="geometry" />
        </mxCell>
        <mxCell id="ji7oat9t6ZDJD498M_jr-83" value="get data from db" style="text;html=1;align=center;verticalAlign=middle;resizable=0;points=[];autosize=1;strokeColor=none;fillColor=none;" vertex="1" parent="1">
          <mxGeometry x="3494.5" y="1520.0000000000002" width="110" height="30" as="geometry" />
        </mxCell>
        <mxCell id="ji7oat9t6ZDJD498M_jr-84" value="(18)" style="text;html=1;align=center;verticalAlign=middle;resizable=0;points=[];autosize=1;strokeColor=none;fillColor=none;" vertex="1" parent="1">
          <mxGeometry x="3862.0700000000006" y="1579.8199999999997" width="40" height="30" as="geometry" />
        </mxCell>
        <mxCell id="ji7oat9t6ZDJD498M_jr-86" value="Somewhere on the earth" style="rounded=0;whiteSpace=wrap;html=1;fillColor=#fff2cc;strokeColor=#d6b656;align=left;verticalAlign=top;" vertex="1" parent="1">
          <mxGeometry x="780" y="1280" width="265" height="910" as="geometry" />
        </mxCell>
        <mxCell id="ji7oat9t6ZDJD498M_jr-87" value="" style="rounded=0;whiteSpace=wrap;html=1;" vertex="1" parent="1">
          <mxGeometry x="812.5" y="2090.41" width="200" height="64" as="geometry" />
        </mxCell>
        <mxCell id="ji7oat9t6ZDJD498M_jr-88" value="GCP" style="rounded=0;whiteSpace=wrap;html=1;align=center;verticalAlign=top;fillColor=#dae8fc;strokeColor=#6c8ebf;" vertex="1" parent="1">
          <mxGeometry x="1555" y="1280.22" width="1365" height="910" as="geometry" />
        </mxCell>
        <mxCell id="ji7oat9t6ZDJD498M_jr-89" value="&lt;font style=&quot;color: rgb(51, 153, 255);&quot;&gt;&lt;u&gt;BigQuery&lt;/u&gt;&lt;/font&gt;" style="rounded=1;whiteSpace=wrap;html=1;verticalAlign=top;align=center;arcSize=9;dashed=1;" vertex="1" parent="1">
          <mxGeometry x="2490" y="1458.83" width="320" height="312.57" as="geometry" />
        </mxCell>
        <mxCell id="ji7oat9t6ZDJD498M_jr-90" value="&lt;font style=&quot;font-size: 13px; color: rgb(51, 153, 255);&quot;&gt;&lt;u&gt;Cloud Storage&lt;/u&gt;&lt;/font&gt;" style="rounded=1;whiteSpace=wrap;html=1;align=center;spacing=2;spacingLeft=0;fontStyle=0;fontFamily=Helvetica;labelBorderColor=none;strokeColor=#000000;verticalAlign=top;container=0;dashed=1;" vertex="1" parent="1">
          <mxGeometry x="1591.85" y="1880.72" width="302" height="255.28" as="geometry" />
        </mxCell>
        <mxCell id="ji7oat9t6ZDJD498M_jr-91" value="&lt;span style=&quot;&quot;&gt;&lt;font style=&quot;color: rgb(51, 153, 255);&quot;&gt;&lt;u&gt;GCF&lt;/u&gt;&lt;/font&gt;&lt;/span&gt;" style="rounded=1;whiteSpace=wrap;html=1;align=center;spacing=2;spacingLeft=0;fontStyle=0;fontFamily=Helvetica;labelBorderColor=none;strokeColor=#000000;verticalAlign=top;dashed=1;" vertex="1" parent="1">
          <mxGeometry x="2000" y="1776" width="300" height="150" as="geometry" />
        </mxCell>
        <mxCell id="ji7oat9t6ZDJD498M_jr-92" value="&lt;div style=&quot;&quot;&gt;&lt;font style=&quot;color: rgb(51, 153, 255);&quot;&gt;&lt;u&gt;&lt;span style=&quot;font-size: 13px; background-color: initial;&quot;&gt;Cloud &lt;/span&gt;&lt;span style=&quot;font-size: 13px; background-color: initial;&quot;&gt;Composer&lt;/span&gt;&lt;/u&gt;&lt;/font&gt;&lt;/div&gt;" style="rounded=1;whiteSpace=wrap;html=1;fontStyle=0;fontFamily=Helvetica;labelBorderColor=none;spacingLeft=0;spacingBottom=0;spacingTop=8;verticalAlign=top;align=center;dashed=1;" vertex="1" parent="1">
          <mxGeometry x="2002.5" y="1976" width="297.5" height="190" as="geometry" />
        </mxCell>
        <mxCell id="ji7oat9t6ZDJD498M_jr-93" value="Confluent Cloud" style="rounded=0;whiteSpace=wrap;html=1;fillColor=#e1d5e7;strokeColor=#9673a6;verticalAlign=top;align=left;spacing=2;" vertex="1" parent="1">
          <mxGeometry x="1587" y="1437" width="412" height="240" as="geometry" />
        </mxCell>
        <mxCell id="ji7oat9t6ZDJD498M_jr-94" value="OnPrem" style="rounded=0;whiteSpace=wrap;html=1;fillColor=#d5e8d4;strokeColor=#82b366;align=left;verticalAlign=top;" vertex="1" parent="1">
          <mxGeometry x="1045" y="1280.22" width="509" height="910" as="geometry" />
        </mxCell>
        <mxCell id="ji7oat9t6ZDJD498M_jr-95" style="edgeStyle=orthogonalEdgeStyle;rounded=0;orthogonalLoop=1;jettySize=auto;html=1;entryX=0;entryY=0.5;entryDx=0;entryDy=0;" edge="1" parent="1" target="ji7oat9t6ZDJD498M_jr-102">
          <mxGeometry relative="1" as="geometry">
            <Array as="points">
              <mxPoint x="1229" y="1678" />
              <mxPoint x="1229" y="1582" />
              <mxPoint x="1268" y="1582" />
            </Array>
            <mxPoint x="1200" y="1706" as="sourcePoint" />
          </mxGeometry>
        </mxCell>
        <mxCell id="ji7oat9t6ZDJD498M_jr-96" style="edgeStyle=orthogonalEdgeStyle;rounded=0;orthogonalLoop=1;jettySize=auto;html=1;strokeColor=#CC6600;" edge="1" parent="1" target="ji7oat9t6ZDJD498M_jr-148">
          <mxGeometry relative="1" as="geometry">
            <mxPoint x="1167" y="1776" as="sourcePoint" />
            <Array as="points">
              <mxPoint x="1167" y="1940" />
            </Array>
          </mxGeometry>
        </mxCell>
        <mxCell id="ji7oat9t6ZDJD498M_jr-97" value="&lt;span style=&quot;&quot;&gt;On-Premise Server&lt;/span&gt;" style="image;points=[];aspect=fixed;html=1;align=center;shadow=0;dashed=0;image=img/lib/allied_telesis/computer_and_terminals/Server_Desktop.svg;labelBackgroundColor=none;" vertex="1" parent="1">
          <mxGeometry x="1140.35" y="1676" width="53.65" height="68" as="geometry" />
        </mxCell>
        <mxCell id="ji7oat9t6ZDJD498M_jr-98" style="edgeStyle=orthogonalEdgeStyle;rounded=0;orthogonalLoop=1;jettySize=auto;html=1;entryX=0;entryY=0.5;entryDx=0;entryDy=0;" edge="1" parent="1" source="ji7oat9t6ZDJD498M_jr-99" target="ji7oat9t6ZDJD498M_jr-102">
          <mxGeometry relative="1" as="geometry" />
        </mxCell>
        <mxCell id="ji7oat9t6ZDJD498M_jr-99" value="DB" style="shape=cylinder3;whiteSpace=wrap;html=1;boundedLbl=1;backgroundOutline=1;size=15;" vertex="1" parent="1">
          <mxGeometry x="1139.74" y="1544.3700000000003" width="52" height="74.41" as="geometry" />
        </mxCell>
        <mxCell id="ji7oat9t6ZDJD498M_jr-100" value="kafka cluster" style="rounded=1;whiteSpace=wrap;html=1;verticalAlign=top;dashed=1;" vertex="1" parent="1">
          <mxGeometry x="1638.75" y="1516.5" width="304.25" height="107.5" as="geometry" />
        </mxCell>
        <mxCell id="ji7oat9t6ZDJD498M_jr-101" style="edgeStyle=orthogonalEdgeStyle;rounded=0;orthogonalLoop=1;jettySize=auto;html=1;entryX=0;entryY=0.5;entryDx=0;entryDy=0;" edge="1" parent="1" source="ji7oat9t6ZDJD498M_jr-102" target="ji7oat9t6ZDJD498M_jr-113">
          <mxGeometry relative="1" as="geometry" />
        </mxCell>
        <mxCell id="ji7oat9t6ZDJD498M_jr-102" value="Kafka Connect" style="rounded=1;whiteSpace=wrap;html=1;verticalAlign=top;dashed=1;" vertex="1" parent="1">
          <mxGeometry x="1282.75" y="1491.58" width="260" height="180" as="geometry" />
        </mxCell>
        <mxCell id="ji7oat9t6ZDJD498M_jr-103" value="jdbc source connector" style="shape=hexagon;perimeter=hexagonPerimeter2;whiteSpace=wrap;html=1;fixedSize=1;labelBackgroundColor=none;fontColor=#000000;rounded=1;" vertex="1" parent="1">
          <mxGeometry x="1322.75" y="1531.58" width="190" height="40" as="geometry" />
        </mxCell>
        <mxCell id="ji7oat9t6ZDJD498M_jr-104" value="sftp source connector" style="shape=hexagon;perimeter=hexagonPerimeter2;whiteSpace=wrap;html=1;fixedSize=1;labelBackgroundColor=none;fontColor=#000000;rounded=1;" vertex="1" parent="1">
          <mxGeometry x="1324" y="1596.58" width="190" height="40" as="geometry" />
        </mxCell>
        <mxCell id="ji7oat9t6ZDJD498M_jr-105" value="Kafka Connect" style="rounded=1;whiteSpace=wrap;html=1;verticalAlign=top;dashed=1;" vertex="1" parent="1">
          <mxGeometry x="2064" y="1516" width="250" height="164" as="geometry" />
        </mxCell>
        <mxCell id="ji7oat9t6ZDJD498M_jr-106" value="bq sink connector" style="shape=hexagon;perimeter=hexagonPerimeter2;whiteSpace=wrap;html=1;fixedSize=1;labelBackgroundColor=none;fontColor=#000000;rounded=1;" vertex="1" parent="1">
          <mxGeometry x="2092.4300000000003" y="1561.5900000000001" width="190" height="40" as="geometry" />
        </mxCell>
        <mxCell id="ji7oat9t6ZDJD498M_jr-107" style="edgeStyle=orthogonalEdgeStyle;rounded=0;orthogonalLoop=1;jettySize=auto;html=1;entryX=1;entryY=0.75;entryDx=0;entryDy=0;" edge="1" parent="1" source="ji7oat9t6ZDJD498M_jr-108" target="ji7oat9t6ZDJD498M_jr-128">
          <mxGeometry relative="1" as="geometry">
            <Array as="points">
              <mxPoint x="2780" y="1596" />
              <mxPoint x="2780" y="1544" />
            </Array>
          </mxGeometry>
        </mxCell>
        <mxCell id="ji7oat9t6ZDJD498M_jr-108" value="refined dataset" style="rounded=1;whiteSpace=wrap;html=1;absoluteArcSize=1;arcSize=14;strokeWidth=2;" vertex="1" parent="1">
          <mxGeometry x="2543.5" y="1568.99" width="216" height="50" as="geometry" />
        </mxCell>
        <mxCell id="ji7oat9t6ZDJD498M_jr-109" value="" style="html=1;verticalAlign=top;labelPosition=center;verticalLabelPosition=bottom;align=center;spacingTop=-6;fontSize=11;fontStyle=0;fontColor=#000000;shape=image;aspect=fixed;imageAspect=0;image=data:image/svg+xml,PHN2ZyB4bWxucz0iaHR0cDovL3d3dy53My5vcmcvMjAwMC9zdmciIHhtbG5zOnY9Imh0dHBzOi8vdmVjdGEuaW8vbmFubyIgd2lkdGg9IjIwLjAwMTA0NTIyNzA1MDc4IiBoZWlnaHQ9IjIwLjAwMTA0NTIyNzA1MDc4IiBmaWxsLXJ1bGU9ImV2ZW5vZGQiIHZpZXdCb3g9IjAgMCAyMC4wMDEwNDUyMjcwNTA3OCAyMC4wMDEwNDUyMjcwNTA3OCI+JiN4YTsJPHN0eWxlIHR5cGU9InRleHQvY3NzIj4mI3hhOwkuc3Qwe2ZpbGw6I2FlY2JmYTt9JiN4YTsJLnN0MXtmaWxsOiM2NjlkZjY7fSYjeGE7CS5zdDJ7ZmlsbDojNDI4NWY0O30mI3hhOwk8L3N0eWxlPiYjeGE7CTxwYXRoIGNsYXNzPSJzdDAiIGQ9Ik00LjczIDguODN2Mi42M2E0LjkxIDQuOTEgMCAwIDAgMS43MSAxLjc0VjguODN6Ii8+JiN4YTsJPHBhdGggY2xhc3M9InN0MSIgZD0iTTcuODkgNi40MXY3LjUzQTcuNjIgNy42MiAwIDAgMCA5IDE0YTggOCAwIDAgMCAxIDBWNi40MXoiLz4mI3hhOwk8cGF0aCBjbGFzcz0ic3QwIiBkPSJNMTEuNjQgOS44NnYzLjI5YTUgNSAwIDAgMCAxLjctMS44MlY5Ljg2eiIvPiYjeGE7CTxwYXRoIGNsYXNzPSJzdDIiIGQ9Ik0xNS43NCAxNC4zMmwtMS40MiAxLjQyYS40Mi40MiAwIDAgMCAwIC42bDMuNTQgMy41NGEuNDIuNDIgMCAwIDAgLjU5IDBsMS40My0xLjQzYS40Mi40MiAwIDAgMCAwLS41OWwtMy41NC0zLjU0YS40Mi40MiAwIDAgMC0uNiAwIi8+JiN4YTsJPHBhdGggY2xhc3M9InN0MSIgZD0iTTkgMGE5IDkgMCAxIDAgMCAxOEE5IDkgMCAxIDAgOSAwbTAgMTUuNjlhNi42OCA2LjY4IDAgMCAxIC4wMDctMTMuMzYgNi42OCA2LjY4IDAgMCAxIDQuNzI3IDExLjQwM0E2LjY4IDYuNjggMCAwIDEgOSAxNS42OSIvPiYjeGE7PC9zdmc+;labelBackgroundColor=none;rounded=1;" vertex="1" parent="1">
          <mxGeometry x="2481" y="1446.62" width="32.99" height="32.99" as="geometry" />
        </mxCell>
        <mxCell id="ji7oat9t6ZDJD498M_jr-110" style="edgeStyle=orthogonalEdgeStyle;rounded=0;orthogonalLoop=1;jettySize=auto;html=1;entryX=0.5;entryY=0;entryDx=0;entryDy=0;startArrow=classic;startFill=1;endArrow=none;endFill=0;" edge="1" parent="1" source="ji7oat9t6ZDJD498M_jr-111" target="ji7oat9t6ZDJD498M_jr-113">
          <mxGeometry relative="1" as="geometry">
            <Array as="points">
              <mxPoint x="1727" y="1477" />
              <mxPoint x="1727" y="1477" />
            </Array>
          </mxGeometry>
        </mxCell>
        <mxCell id="ji7oat9t6ZDJD498M_jr-111" value="Kafka stream" style="rounded=1;whiteSpace=wrap;html=1;verticalAlign=top;dashed=1;" vertex="1" parent="1">
          <mxGeometry x="1683.7400000000002" y="1307" width="210" height="90" as="geometry" />
        </mxCell>
        <mxCell id="ji7oat9t6ZDJD498M_jr-112" value="normalize data" style="rounded=1;whiteSpace=wrap;html=1;absoluteArcSize=1;arcSize=14;strokeWidth=2;" vertex="1" parent="1">
          <mxGeometry x="1698.7400000000002" y="1341.37" width="180" height="33.13" as="geometry" />
        </mxCell>
        <mxCell id="ji7oat9t6ZDJD498M_jr-113" value="raw topic" style="rounded=1;whiteSpace=wrap;html=1;absoluteArcSize=1;arcSize=14;strokeWidth=2;" vertex="1" parent="1">
          <mxGeometry x="1666.12" y="1565.0100000000002" width="121.25" height="33.13" as="geometry" />
        </mxCell>
        <mxCell id="ji7oat9t6ZDJD498M_jr-114" style="edgeStyle=orthogonalEdgeStyle;rounded=0;orthogonalLoop=1;jettySize=auto;html=1;entryX=0;entryY=0.5;entryDx=0;entryDy=0;" edge="1" parent="1" source="ji7oat9t6ZDJD498M_jr-117" target="ji7oat9t6ZDJD498M_jr-106">
          <mxGeometry relative="1" as="geometry" />
        </mxCell>
        <mxCell id="ji7oat9t6ZDJD498M_jr-115" style="edgeStyle=orthogonalEdgeStyle;rounded=0;orthogonalLoop=1;jettySize=auto;html=1;entryX=0;entryY=0.5;entryDx=0;entryDy=0;" edge="1" parent="1" source="ji7oat9t6ZDJD498M_jr-117" target="ji7oat9t6ZDJD498M_jr-118">
          <mxGeometry relative="1" as="geometry">
            <Array as="points">
              <mxPoint x="2025" y="1581" />
              <mxPoint x="2025" y="1642" />
            </Array>
          </mxGeometry>
        </mxCell>
        <mxCell id="ji7oat9t6ZDJD498M_jr-116" style="edgeStyle=orthogonalEdgeStyle;rounded=0;orthogonalLoop=1;jettySize=auto;html=1;endArrow=none;endFill=0;startArrow=classic;startFill=1;" edge="1" parent="1" source="ji7oat9t6ZDJD498M_jr-117" target="ji7oat9t6ZDJD498M_jr-111">
          <mxGeometry relative="1" as="geometry">
            <Array as="points">
              <mxPoint x="1855" y="1481" />
              <mxPoint x="1855" y="1481" />
            </Array>
          </mxGeometry>
        </mxCell>
        <mxCell id="ji7oat9t6ZDJD498M_jr-117" value="refined topic" style="rounded=1;whiteSpace=wrap;html=1;absoluteArcSize=1;arcSize=14;strokeWidth=2;" vertex="1" parent="1">
          <mxGeometry x="1794.7499999999998" y="1564.0899999999997" width="121.25" height="33.13" as="geometry" />
        </mxCell>
        <mxCell id="ji7oat9t6ZDJD498M_jr-118" value="jdbc sink connector" style="shape=hexagon;perimeter=hexagonPerimeter2;whiteSpace=wrap;html=1;fixedSize=1;labelBackgroundColor=none;fontColor=#000000;rounded=1;" vertex="1" parent="1">
          <mxGeometry x="2094" y="1621.5900000000001" width="190" height="40" as="geometry" />
        </mxCell>
        <mxCell id="ji7oat9t6ZDJD498M_jr-119" style="edgeStyle=orthogonalEdgeStyle;rounded=0;orthogonalLoop=1;jettySize=auto;html=1;entryX=0;entryY=0.25;entryDx=0;entryDy=0;" edge="1" parent="1" source="ji7oat9t6ZDJD498M_jr-106" target="ji7oat9t6ZDJD498M_jr-108">
          <mxGeometry relative="1" as="geometry" />
        </mxCell>
        <mxCell id="ji7oat9t6ZDJD498M_jr-120" value="import data" style="text;html=1;strokeColor=none;fillColor=none;align=center;verticalAlign=middle;whiteSpace=wrap;rounded=0;" vertex="1" parent="1">
          <mxGeometry x="1189.74" y="1549.9899999999998" width="94.77" height="30" as="geometry" />
        </mxCell>
        <mxCell id="ji7oat9t6ZDJD498M_jr-121" value="consume data" style="text;html=1;strokeColor=none;fillColor=none;align=center;verticalAlign=middle;whiteSpace=wrap;rounded=0;" vertex="1" parent="1">
          <mxGeometry x="1635.1200000000001" y="1397" width="94.77" height="30" as="geometry" />
        </mxCell>
        <mxCell id="ji7oat9t6ZDJD498M_jr-122" value="produce data" style="text;html=1;strokeColor=none;fillColor=none;align=center;verticalAlign=middle;whiteSpace=wrap;rounded=0;" vertex="1" parent="1">
          <mxGeometry x="1850.85" y="1397" width="94.77" height="30" as="geometry" />
        </mxCell>
        <mxCell id="ji7oat9t6ZDJD498M_jr-123" value="export data&amp;nbsp;&lt;div&gt;(with name start with &quot;hq_&quot;)&lt;/div&gt;" style="text;html=1;strokeColor=none;fillColor=none;align=center;verticalAlign=middle;whiteSpace=wrap;rounded=0;" vertex="1" parent="1">
          <mxGeometry x="2310" y="1545" width="196.34" height="30" as="geometry" />
        </mxCell>
        <mxCell id="ji7oat9t6ZDJD498M_jr-124" value="produce data" style="text;html=1;strokeColor=none;fillColor=none;align=center;verticalAlign=middle;whiteSpace=wrap;rounded=0;" vertex="1" parent="1">
          <mxGeometry x="1545.97" y="1556.9899999999998" width="94.77" height="30" as="geometry" />
        </mxCell>
        <mxCell id="ji7oat9t6ZDJD498M_jr-125" value="consume data" style="text;html=1;strokeColor=none;fillColor=none;align=center;verticalAlign=middle;whiteSpace=wrap;rounded=0;" vertex="1" parent="1">
          <mxGeometry x="1955" y="1553.9899999999998" width="94.77" height="30" as="geometry" />
        </mxCell>
        <mxCell id="ji7oat9t6ZDJD498M_jr-126" value="" style="aspect=fixed;html=1;points=[];align=center;image;fontSize=12;image=img/lib/azure2/general/Files.svg;labelBackgroundColor=none;" vertex="1" parent="1">
          <mxGeometry x="1168" y="1719" width="26" height="28.44" as="geometry" />
        </mxCell>
        <mxCell id="ji7oat9t6ZDJD498M_jr-127" value="raw dataset" style="rounded=1;whiteSpace=wrap;html=1;absoluteArcSize=1;arcSize=14;strokeWidth=2;" vertex="1" parent="1">
          <mxGeometry x="2543.75" y="1630.5900000000001" width="216" height="50" as="geometry" />
        </mxCell>
        <mxCell id="ji7oat9t6ZDJD498M_jr-238" style="edgeStyle=orthogonalEdgeStyle;rounded=0;orthogonalLoop=1;jettySize=auto;html=1;entryX=0;entryY=0.25;entryDx=0;entryDy=0;exitX=0.993;exitY=0.648;exitDx=0;exitDy=0;exitPerimeter=0;strokeColor=#FF3333;" edge="1" parent="1" source="ji7oat9t6ZDJD498M_jr-128" target="ji7oat9t6ZDJD498M_jr-236">
          <mxGeometry relative="1" as="geometry">
            <Array as="points">
              <mxPoint x="2758" y="1530" />
              <mxPoint x="2870" y="1530" />
              <mxPoint x="2870" y="1966" />
            </Array>
          </mxGeometry>
        </mxCell>
        <mxCell id="ji7oat9t6ZDJD498M_jr-128" value="biz dataset" style="rounded=1;whiteSpace=wrap;html=1;absoluteArcSize=1;arcSize=14;strokeWidth=2;" vertex="1" parent="1">
          <mxGeometry x="2543.75" y="1506" width="216" height="50" as="geometry" />
        </mxCell>
        <mxCell id="ji7oat9t6ZDJD498M_jr-129" style="edgeStyle=orthogonalEdgeStyle;rounded=0;orthogonalLoop=1;jettySize=auto;html=1;strokeColor=#CC6600;" edge="1" parent="1" source="ji7oat9t6ZDJD498M_jr-130" target="ji7oat9t6ZDJD498M_jr-97">
          <mxGeometry relative="1" as="geometry" />
        </mxCell>
        <mxCell id="ji7oat9t6ZDJD498M_jr-130" value="The branches" style="verticalLabelPosition=bottom;sketch=0;html=1;fillColor=#282828;strokeColor=none;verticalAlign=top;pointerEvents=1;align=center;shape=mxgraph.cisco_safe.people_places_things_icons.icon2;" vertex="1" parent="1">
          <mxGeometry x="830" y="1689.5" width="50" height="41" as="geometry" />
        </mxCell>
        <mxCell id="ji7oat9t6ZDJD498M_jr-131" value="Magellan or CFT" style="text;html=1;align=center;verticalAlign=middle;resizable=0;points=[];autosize=1;strokeColor=none;fillColor=none;" vertex="1" parent="1">
          <mxGeometry x="930" y="1679.78" width="110" height="30" as="geometry" />
        </mxCell>
        <mxCell id="ji7oat9t6ZDJD498M_jr-132" value="upload files" style="text;html=1;align=center;verticalAlign=middle;resizable=0;points=[];autosize=1;strokeColor=none;fillColor=none;" vertex="1" parent="1">
          <mxGeometry x="945" y="1710" width="80" height="30" as="geometry" />
        </mxCell>
        <mxCell id="ji7oat9t6ZDJD498M_jr-133" value="" style="shape=image;verticalLabelPosition=bottom;labelBackgroundColor=default;verticalAlign=top;aspect=fixed;imageAspect=0;image=data:image/svg+xml,PHN2ZyB4bWxuczp4bGluaz0iaHR0cDovL3d3dy53My5vcmcvMTk5OS94bGluayIgeG1sbnM9Imh0dHA6Ly93d3cudzMub3JnLzIwMDAvc3ZnIiBwcmVzZXJ2ZUFzcGVjdFJhdGlvPSJ4TWlkWU1pZCIgdmVyc2lvbj0iMS4xIiB2aWV3Qm94PSIwIDAgMjU2IDIzMS4yMzY4MTY0MDYyNSIgaGVpZ2h0PSIyMzEuMjM2ODE2NDA2MjUiIHdpZHRoPSIyNTYiPiYjeGE7ICAgIDxkZWZzPiYjeGE7ICAgICAgICA8cGF0aCBpZD0icGF0aC0xIiBkPSJNMjUyLjkyNTg1NCwxMDMuMjM3MDc3IEwyMDAuMzI3MzQ0LDExLjc1OTY2NyBDMTk2LjMwMjU3OSw0LjYyMjI1NzAzIDE4OC44MDA1NCwwLjE0ODQyNDcyNiAxODAuNjA3OTAyLDAgTDc1LjM5MDg4MTQsMCBDNjcuMTk3MDkxMiwwLjE0NDM4NTQ4IDU5LjY5MzE5ODQsNC42MTkzMjM2MyA1NS42NzE0Mzk4LDExLjc1OTY2NyBMMy4wNTI5Mjk4NSwxMDIuOTk3MDgzIEMtMS4wMTc2NDMyOCwxMTAuMDgwMzczIC0xLjAxNzY0MzI4LDExOC43OTMxNDYgMy4wNTI5Mjk4NSwxMjUuODc2NDM2IEw1NS42NTE0NDA0LDIxNy44NzM4MyBDNTkuNjMxOTc1NSwyMjUuMTEyNzA3IDY3LjExNTkwNTIsMjI5LjczNTEzNCA3NS4zNzA4ODIsMjMwLjA1MzQ4NiBMMTgwLjU4NzkwMywyMzAuMDUzNDg2IEMxODguODQyNDQyLDIyOS43NzAxNDQgMTk2LjMzOTgwOSwyMjUuMTY2ODk2IDIwMC4zMjczNDQsMjE3LjkzMzgyOSBMMjUyLjkyNTg1NCwxMjYuNDU2NDE5IEMyNTcuMDI0NzE1LDExOS4yNTkzMTEgMjU3LjAyNDcxNSwxMTAuNDM0MTg1IDI1Mi45MjU4NTQsMTAzLjIzNzA3NyBaIi8+JiN4YTsgICAgPC9kZWZzPiYjeGE7CQk8Zz4mI3hhOwkJCQk8bWFzayBmaWxsPSJ3aGl0ZSIgaWQ9Im1hc2stMiI+JiN4YTsJCQkJCQk8dXNlIHhsaW5rOmhyZWY9IiNwYXRoLTEiLz4mI3hhOwkJCQk8L21hc2s+JiN4YTsJCQkJPGcgZmlsbC1ydWxlPSJub256ZXJvIi8+JiN4YTsJCQkJPHBhdGggbWFzaz0idXJsKCNtYXNrLTIpIiBmaWxsLXJ1bGU9Im5vbnplcm8iIGZpbGw9IiM0Mjg1RjQiIGQ9Ik0yNTIuOTI1ODU0LDEwMy4yMzcwNzcgTDIwMC4zMjczNDQsMTEuNzU5NjY3IEMxOTYuMzAyNTc5LDQuNjIyMjU3MDMgMTg4LjgwMDU0LDAuMTQ4NDI0NzI2IDE4MC42MDc5MDIsMCBMNzUuMzkwODgxNCwwIEM2Ny4xOTcwOTEyLDAuMTQ0Mzg1NDggNTkuNjkzMTk4NCw0LjYxOTMyMzYzIDU1LjY3MTQzOTgsMTEuNzU5NjY3IEwzLjA1MjkyOTg1LDEwMi45OTcwODMgQy0xLjAxNzY0MzI4LDExMC4wODAzNzMgLTEuMDE3NjQzMjgsMTE4Ljc5MzE0NiAzLjA1MjkyOTg1LDEyNS44NzY0MzYgTDU1LjY1MTQ0MDQsMjE3Ljg3MzgzIEM1OS42MzE5NzU1LDIyNS4xMTI3MDcgNjcuMTE1OTA1MiwyMjkuNzM1MTM0IDc1LjM3MDg4MiwyMzAuMDUzNDg2IEwxODAuNTg3OTAzLDIzMC4wNTM0ODYgQzE4OC44NDI0NDIsMjI5Ljc3MDE0NCAxOTYuMzM5ODA5LDIyNS4xNjY4OTYgMjAwLjMyNzM0NCwyMTcuOTMzODI5IEwyNTIuOTI1ODU0LDEyNi40NTY0MTkgQzI1Ny4wMjQ3MTUsMTE5LjI1OTMxMSAyNTcuMDI0NzE1LDExMC40MzQxODUgMjUyLjkyNTg1NCwxMDMuMjM3MDc3IFoiLz4mI3hhOwkJCQk8cGF0aCBtYXNrPSJ1cmwoI21hc2stMikiIG9wYWNpdHk9IjAuMDcwMDAwMDAwMyIgZmlsbC1ydWxlPSJub256ZXJvIiBmaWxsPSIjMDAwMDAwIiBkPSJNMTg3LjE2NzYwNSw4NC43MzE2MDMgTDE3OS45MTU3MTEsOTIuNjQwOTQ4NSBMMTgxLjU0OTM3OSwxMzkuNjM4Nzk3IEwxNzQuNjc2MDE5LDE0OS42MDAxOSBMMTcwLjY5MTQ2MiwxNDUuNjE1NjMzIEwxNzQuMzU3MjU0LDE0NS42MTU2MzMgTDE3NC4zNTcyNTQsMTI5LjMxODc5NSBMMTU2Ljc2NTQzNSwxMTEuNzI2OTc2IEwxNDMuNDY4NzQ2LDExOC4zNzMwNDcgTDk5LjM2Nzg5MjksNzQuMTcyNTI3MSBMNzguMTMwMjA0NSw4NS41NDg0MzcxIEw3NS41MDAzOTcsMTA3LjU4MzAzNyBMODIuOTUxNTE4NCwxNDcuOTA2NzUzIEw5My43NDk2Njc3LDE1OC40ODU3NTIgTDg4LjgyODczOTksMTY1LjQ3ODY0OSBMMTUzLjA3NjA5OCwyMzEuMjM2ODE2IEwxNzkuOTE1NzExLDIzMS4yMzY4MTYgQzE4OC4xMzg2MTQsMjMwLjk1NDU2IDE5Ny4wNDQyNzYsMjI1LjU2NTY5OCAyMDEuMDE2NTI4LDIxOC4zNjAzNTIgTDI0NC43OTUzMzYsMTQyLjM1NjkzNCBMMTg3LjE2NzYwNSw4NC43MzE2MDMgWiIvPiYjeGE7CQkJCTxwb2x5Z29uIHBvaW50cz0iODguODI4NzM5OSAxNjUuNDc4NjQ5IDk5LjM2Nzg5MjkgMTU0LjkzOTQ5NiA4My41NjkxMjQ3IDEzOS4xNDA3MjggODMuNTY5MTI0NyA4OS45NzEyOTUzIDk5LjM2Nzg5MjkgNzQuMTcyNTI3MSA4OC44Mjg3Mzk5IDYzLjYzMzM3NDEgNjcuNzMwNTExIDg0LjczMTYwMyA2Ny43MzA1MTEgMTQ0LjM4MDQyIiBtYXNrPSJ1cmwoI21hc2stMikiIGZpbGwtcnVsZT0ibm9uemVybyIgZmlsbD0iI0ZGRkZGRiIvPiYjeGE7CQkJCTxjaXJjbGUgcj0iNy40NzEwNDQyMyIgY3k9IjExNC41NTYwMTIiIGN4PSIxMDUuMTQ1NSIgbWFzaz0idXJsKCNtYXNrLTIpIiBmaWxsLXJ1bGU9Im5vbnplcm8iIGZpbGw9IiNGRkZGRkYiLz4mI3hhOwkJCQk8Y2lyY2xlIHI9IjcuNDcxMDQ0MjMiIGN5PSIxMTQuNTU2MDEyIiBjeD0iMTI3LjQ5ODg2NSIgbWFzaz0idXJsKCNtYXNrLTIpIiBmaWxsLXJ1bGU9Im5vbnplcm8iIGZpbGw9IiNGRkZGRkYiLz4mI3hhOwkJCQk8Y2lyY2xlIHI9IjcuNDcxMDQ0MjMiIGN5PSIxMTQuNTU2MDEyIiBjeD0iMTQ5Ljg1MjIyOSIgbWFzaz0idXJsKCNtYXNrLTIpIiBmaWxsLXJ1bGU9Im5vbnplcm8iIGZpbGw9IiNGRkZGRkYiLz4mI3hhOwkJCQk8cG9seWdvbiBwb2ludHM9IjE2Ni4wNjkzNzYgNjMuNjMzMzc0MSAxNTUuNTMwMjIzIDc0LjE3MjUyNzEgMTcxLjMyODk5MSA4OS45NzEyOTUzIDE3MS4zMjg5OTEgMTM5LjE0MDcyOCAxNTUuNTMwMjIzIDE1NC45Mzk0OTYgMTY2LjA2OTM3NiAxNjUuNDc4NjQ5IDE4Ny4xNjc2MDUgMTQ0LjM4MDQyIDE4Ny4xNjc2MDUgODQuNzMxNjAzIiBtYXNrPSJ1cmwoI21hc2stMikiIGZpbGwtcnVsZT0ibm9uemVybyIgZmlsbD0iI0ZGRkZGRiIvPiYjeGE7CQk8L2c+JiN4YTs8L3N2Zz4=;" vertex="1" parent="1">
          <mxGeometry x="1978.3400000000001" y="1756" width="48.09" height="43.41" as="geometry" />
        </mxCell>
        <mxCell id="ji7oat9t6ZDJD498M_jr-134" value="tmp dataset" style="rounded=1;whiteSpace=wrap;html=1;absoluteArcSize=1;arcSize=14;strokeWidth=2;" vertex="1" parent="1">
          <mxGeometry x="2543.75" y="1694.0000000000002" width="216" height="50" as="geometry" />
        </mxCell>
        <mxCell id="ji7oat9t6ZDJD498M_jr-135" style="edgeStyle=orthogonalEdgeStyle;rounded=0;orthogonalLoop=1;jettySize=auto;html=1;entryX=1;entryY=0.25;entryDx=0;entryDy=0;strokeColor=#CC6600;" edge="1" parent="1" source="ji7oat9t6ZDJD498M_jr-146" target="ji7oat9t6ZDJD498M_jr-149">
          <mxGeometry relative="1" as="geometry">
            <Array as="points">
              <mxPoint x="1960" y="1856" />
              <mxPoint x="1960" y="2001" />
            </Array>
          </mxGeometry>
        </mxCell>
        <mxCell id="ji7oat9t6ZDJD498M_jr-136" style="edgeStyle=orthogonalEdgeStyle;rounded=0;orthogonalLoop=1;jettySize=auto;html=1;entryX=0;entryY=0.25;entryDx=0;entryDy=0;strokeColor=#CC6600;" edge="1" parent="1" source="ji7oat9t6ZDJD498M_jr-148" target="ji7oat9t6ZDJD498M_jr-146">
          <mxGeometry relative="1" as="geometry">
            <Array as="points">
              <mxPoint x="1940" y="1940" />
              <mxPoint x="1940" y="1844" />
              <mxPoint x="2045" y="1844" />
            </Array>
          </mxGeometry>
        </mxCell>
        <mxCell id="ji7oat9t6ZDJD498M_jr-137" value="" style="editableCssRules=.*;html=1;shape=image;verticalLabelPosition=bottom;labelBackgroundColor=#ffffff;verticalAlign=top;aspect=fixed;imageAspect=0;image=data:image/svg+xml,PHN2ZyB4bWxucz0iaHR0cDovL3d3dy53My5vcmcvMjAwMC9zdmciIHhtbG5zOnY9Imh0dHBzOi8vdmVjdGEuaW8vbmFubyIgd2lkdGg9IjE0LjY0MDAwMDM0MzMyMjc1NCIgaGVpZ2h0PSIyMCIgdmlld0JveD0iMCAwIDE0LjY0MDAwMDM0MzMyMjc1NCAyMCI+JiN4YTsJPHN0eWxlIHR5cGU9InRleHQvY3NzIj4mI3hhOwkuc3Qwe2ZpbGw6I2FlY2JmYTt9JiN4YTsJLnN0MXtmaWxsOiM0Mjg1ZjQ7fSYjeGE7CTwvc3R5bGU+JiN4YTsJPHBhdGggY2xhc3M9InN0MCIgZD0iTTAgMGgxNC42M3YzLjk0aC01LjN2NS4zM0g1LjM1VjMuOTZIMHoiLz4mI3hhOwk8cGF0aCBjbGFzcz0ic3QxIiBkPSJNMy45NSAxMC42N2g1LjM0VjIwSDUuMzV2LTUuMzVIMFY1LjM3aDMuOTV6TTE0LjY0IDIwSDEwLjdWNS4zNmgzLjk0eiIvPiYjeGE7CTxwYXRoIGNsYXNzPSJzdDAiIGQ9Ik0wIDE2LjA2aDMuOTJWMjBIMHoiLz4mI3hhOzwvc3ZnPg==;" vertex="1" parent="1">
          <mxGeometry x="1989.75" y="1956" width="37.5" height="50" as="geometry" />
        </mxCell>
        <mxCell id="ji7oat9t6ZDJD498M_jr-138" style="edgeStyle=orthogonalEdgeStyle;rounded=0;orthogonalLoop=1;jettySize=auto;html=1;entryX=1;entryY=0.75;entryDx=0;entryDy=0;strokeColor=#CC6600;startArrow=classic;startFill=1;endArrow=none;endFill=0;" edge="1" parent="1" source="ji7oat9t6ZDJD498M_jr-141" target="ji7oat9t6ZDJD498M_jr-149">
          <mxGeometry relative="1" as="geometry">
            <Array as="points">
              <mxPoint x="1930" y="2051" />
              <mxPoint x="1930" y="2026" />
            </Array>
          </mxGeometry>
        </mxCell>
        <mxCell id="ji7oat9t6ZDJD498M_jr-139" style="edgeStyle=orthogonalEdgeStyle;rounded=0;orthogonalLoop=1;jettySize=auto;html=1;entryX=1;entryY=0.5;entryDx=0;entryDy=0;strokeColor=#CC6600;exitX=0;exitY=0.75;exitDx=0;exitDy=0;" edge="1" parent="1" source="ji7oat9t6ZDJD498M_jr-146" target="ji7oat9t6ZDJD498M_jr-150">
          <mxGeometry relative="1" as="geometry">
            <Array as="points">
              <mxPoint x="1980" y="1869" />
              <mxPoint x="1980" y="2082" />
            </Array>
          </mxGeometry>
        </mxCell>
        <mxCell id="ji7oat9t6ZDJD498M_jr-140" style="edgeStyle=orthogonalEdgeStyle;rounded=0;orthogonalLoop=1;jettySize=auto;html=1;strokeColor=#CC6600;" edge="1" parent="1" target="ji7oat9t6ZDJD498M_jr-127">
          <mxGeometry relative="1" as="geometry">
            <mxPoint x="2236.75" y="2061.94347826087" as="sourcePoint" />
            <mxPoint x="2543.5" y="1638.9900000000002" as="targetPoint" />
            <Array as="points">
              <mxPoint x="2370" y="2062" />
              <mxPoint x="2370" y="1646" />
            </Array>
          </mxGeometry>
        </mxCell>
        <mxCell id="ji7oat9t6ZDJD498M_jr-141" value="DAG - Load RAW file" style="rounded=1;whiteSpace=wrap;html=1;absoluteArcSize=1;arcSize=14;strokeWidth=2;" vertex="1" parent="1">
          <mxGeometry x="2062" y="2026" width="175" height="50" as="geometry" />
        </mxCell>
        <mxCell id="ji7oat9t6ZDJD498M_jr-142" style="edgeStyle=orthogonalEdgeStyle;rounded=0;orthogonalLoop=1;jettySize=auto;html=1;strokeColor=#CC6600;startArrow=classic;startFill=1;endArrow=none;endFill=0;" edge="1" parent="1" source="ji7oat9t6ZDJD498M_jr-144" target="ji7oat9t6ZDJD498M_jr-127">
          <mxGeometry relative="1" as="geometry">
            <Array as="points">
              <mxPoint x="2430" y="2126" />
              <mxPoint x="2430" y="1666" />
            </Array>
          </mxGeometry>
        </mxCell>
        <mxCell id="ji7oat9t6ZDJD498M_jr-143" style="edgeStyle=orthogonalEdgeStyle;rounded=0;orthogonalLoop=1;jettySize=auto;html=1;entryX=0;entryY=0.75;entryDx=0;entryDy=0;jumpStyle=arc;strokeColor=#CC6600;" edge="1" parent="1" source="ji7oat9t6ZDJD498M_jr-144" target="ji7oat9t6ZDJD498M_jr-108">
          <mxGeometry relative="1" as="geometry">
            <Array as="points">
              <mxPoint x="2400" y="2106" />
              <mxPoint x="2400" y="1607" />
            </Array>
          </mxGeometry>
        </mxCell>
        <mxCell id="ji7oat9t6ZDJD498M_jr-144" value="DAG - Load REFINED data&lt;div&gt;(verify if data are all collected)&lt;br&gt;(control)&lt;/div&gt;" style="rounded=1;whiteSpace=wrap;html=1;absoluteArcSize=1;arcSize=14;strokeWidth=2;" vertex="1" parent="1">
          <mxGeometry x="2062" y="2096" width="175" height="50" as="geometry" />
        </mxCell>
        <mxCell id="ji7oat9t6ZDJD498M_jr-145" style="edgeStyle=orthogonalEdgeStyle;rounded=0;orthogonalLoop=1;jettySize=auto;html=1;strokeColor=#CC6600;" edge="1" parent="1" source="ji7oat9t6ZDJD498M_jr-146" target="ji7oat9t6ZDJD498M_jr-141">
          <mxGeometry relative="1" as="geometry">
            <Array as="points">
              <mxPoint x="2340" y="1856" />
              <mxPoint x="2340" y="2036" />
            </Array>
          </mxGeometry>
        </mxCell>
        <mxCell id="ji7oat9t6ZDJD498M_jr-146" value="function -&amp;nbsp;&lt;div&gt;separate files by TY_OPE_TBA&lt;/div&gt;" style="rounded=1;whiteSpace=wrap;html=1;absoluteArcSize=1;arcSize=14;strokeWidth=2;" vertex="1" parent="1">
          <mxGeometry x="2045" y="1831" width="216" height="50" as="geometry" />
        </mxCell>
        <mxCell id="ji7oat9t6ZDJD498M_jr-147" value="" style="sketch=0;html=1;verticalAlign=top;labelPosition=center;verticalLabelPosition=bottom;align=center;spacingTop=-6;fontSize=11;fontStyle=1;fontColor=#999999;shape=image;aspect=fixed;imageAspect=0;image=data:image/svg+xml,PHN2ZyB4bWxucz0iaHR0cDovL3d3dy53My5vcmcvMjAwMC9zdmciIHhtbG5zOnY9Imh0dHBzOi8vdmVjdGEuaW8vbmFubyIgd2lkdGg9IjIwIiBoZWlnaHQ9IjE2IiB2aWV3Qm94PSIwIDAgMjAgMTYiPiYjeGE7CTxzdHlsZSB0eXBlPSJ0ZXh0L2NzcyI+JiN4YTsJLnN0MHtmaWxsOiM0Mjg1ZjQ7fSYjeGE7CS5zdDF7ZmlsbDojNjY5ZGY2O30mI3hhOwkuc3Qye2ZpbGw6I2FlY2JmYTt9JiN4YTsJLnN0M3tmaWxsOiNmZmY7fSYjeGE7CTwvc3R5bGU+JiN4YTsJPHBhdGggY2xhc3M9InN0MiIgZD0iTTAgMGgyMHY3SDB6Ii8+JiN4YTsJPHBhdGggY2xhc3M9InN0MSIgZD0iTTE4IDBoMnY3aC0yeiIvPiYjeGE7CTxwYXRoIGNsYXNzPSJzdDAiIGQ9Ik0xOCA3bDItN2gtMnoiLz4mI3hhOwk8cGF0aCBjbGFzcz0ic3QxIiBkPSJNMCAwaDJ2N0gweiIvPiYjeGE7CTxnIGNsYXNzPSJzdDMiPiYjeGE7CQk8cGF0aCBkPSJNNCAzaDZ2MUg0eiIvPiYjeGE7CQk8cmVjdCB4PSIxMyIgeT0iMiIgd2lkdGg9IjMiIGhlaWdodD0iMyIgcng9IjEuNSIvPiYjeGE7CTwvZz4mI3hhOwk8cGF0aCBjbGFzcz0ic3QyIiBkPSJNMCA5aDIwdjdIMHoiLz4mI3hhOwk8cGF0aCBjbGFzcz0ic3QxIiBkPSJNMTggOWgydjdoLTJ6Ii8+JiN4YTsJPHBhdGggY2xhc3M9InN0MCIgZD0iTTE4IDE2bDItN2gtMnoiLz4mI3hhOwk8cGF0aCBjbGFzcz0ic3QxIiBkPSJNMCA5aDJ2N0gweiIvPiYjeGE7CTxnIGNsYXNzPSJzdDMiPiYjeGE7CQk8cGF0aCBkPSJNNCAxMmg2djFINHoiLz4mI3hhOwkJPHJlY3QgeD0iMTMiIHk9IjExIiB3aWR0aD0iMyIgaGVpZ2h0PSIzIiByeD0iMS41Ii8+JiN4YTsJPC9nPiYjeGE7PC9zdmc+;container=0;" vertex="1" parent="1">
          <mxGeometry x="1580.93" y="1875.996073619632" width="37.07" height="30" as="geometry" />
        </mxCell>
        <mxCell id="ji7oat9t6ZDJD498M_jr-148" value="bucket data in" style="rounded=1;whiteSpace=wrap;html=1;absoluteArcSize=1;arcSize=14;strokeWidth=2;container=0;" vertex="1" parent="1">
          <mxGeometry x="1634.85" y="1920.7200658258507" width="216" height="50" as="geometry" />
        </mxCell>
        <mxCell id="ji7oat9t6ZDJD498M_jr-149" value="bucket ready" style="rounded=1;whiteSpace=wrap;html=1;absoluteArcSize=1;arcSize=14;strokeWidth=2;container=0;" vertex="1" parent="1">
          <mxGeometry x="1634.85" y="1988.7199999999998" width="216" height="50" as="geometry" />
        </mxCell>
        <mxCell id="ji7oat9t6ZDJD498M_jr-150" value="bucket archive" style="rounded=1;whiteSpace=wrap;html=1;absoluteArcSize=1;arcSize=14;strokeWidth=2;container=0;" vertex="1" parent="1">
          <mxGeometry x="1634.85" y="2057.4134990389425" width="216" height="50" as="geometry" />
        </mxCell>
        <mxCell id="ji7oat9t6ZDJD498M_jr-151" value="copy data by scheduled query" style="text;html=1;align=center;verticalAlign=middle;resizable=0;points=[];autosize=1;strokeColor=none;fillColor=none;" vertex="1" parent="1">
          <mxGeometry x="2772" y="1550.22" width="180" height="30" as="geometry" />
        </mxCell>
        <mxCell id="ji7oat9t6ZDJD498M_jr-152" value="NiFi" style="text;html=1;align=center;verticalAlign=middle;resizable=0;points=[];autosize=1;strokeColor=none;fillColor=none;" vertex="1" parent="1">
          <mxGeometry x="1361.5" y="1912" width="40" height="30" as="geometry" />
        </mxCell>
        <mxCell id="ji7oat9t6ZDJD498M_jr-153" value="transfer files" style="text;html=1;align=center;verticalAlign=middle;resizable=0;points=[];autosize=1;strokeColor=none;fillColor=none;" vertex="1" parent="1">
          <mxGeometry x="1336.5" y="1938.7199999999998" width="90" height="30" as="geometry" />
        </mxCell>
        <mxCell id="ji7oat9t6ZDJD498M_jr-154" value="trigger" style="text;html=1;align=center;verticalAlign=middle;resizable=0;points=[];autosize=1;strokeColor=none;fillColor=none;" vertex="1" parent="1">
          <mxGeometry x="1886" y="1914" width="60" height="30" as="geometry" />
        </mxCell>
        <mxCell id="ji7oat9t6ZDJD498M_jr-155" value="move files" style="text;html=1;align=center;verticalAlign=middle;resizable=0;points=[];autosize=1;strokeColor=none;fillColor=none;" vertex="1" parent="1">
          <mxGeometry x="1885" y="1978" width="80" height="30" as="geometry" />
        </mxCell>
        <mxCell id="ji7oat9t6ZDJD498M_jr-156" value="trigger" style="text;html=1;align=center;verticalAlign=middle;resizable=0;points=[];autosize=1;strokeColor=none;fillColor=none;" vertex="1" parent="1">
          <mxGeometry x="2292" y="1831" width="60" height="30" as="geometry" />
        </mxCell>
        <mxCell id="ji7oat9t6ZDJD498M_jr-157" value="read file" style="text;html=1;align=center;verticalAlign=middle;resizable=0;points=[];autosize=1;strokeColor=none;fillColor=none;" vertex="1" parent="1">
          <mxGeometry x="1919.75" y="2026" width="70" height="30" as="geometry" />
        </mxCell>
        <mxCell id="ji7oat9t6ZDJD498M_jr-158" value="archive file" style="text;html=1;align=center;verticalAlign=middle;resizable=0;points=[];autosize=1;strokeColor=none;fillColor=none;" vertex="1" parent="1">
          <mxGeometry x="1886" y="2060.41" width="80" height="30" as="geometry" />
        </mxCell>
        <mxCell id="ji7oat9t6ZDJD498M_jr-159" value="load data" style="text;html=1;align=center;verticalAlign=middle;resizable=0;points=[];autosize=1;strokeColor=none;fillColor=none;" vertex="1" parent="1">
          <mxGeometry x="2300" y="2040" width="70" height="30" as="geometry" />
        </mxCell>
        <mxCell id="ji7oat9t6ZDJD498M_jr-160" value="" style="image;aspect=fixed;html=1;points=[];align=center;fontSize=12;image=img/lib/azure2/general/Scheduler.svg;" vertex="1" parent="1">
          <mxGeometry x="2053" y="2087.41" width="20" height="20" as="geometry" />
        </mxCell>
        <mxCell id="ji7oat9t6ZDJD498M_jr-161" value="read data" style="text;html=1;align=center;verticalAlign=middle;resizable=0;points=[];autosize=1;strokeColor=none;fillColor=none;" vertex="1" parent="1">
          <mxGeometry x="2325" y="2105" width="70" height="30" as="geometry" />
        </mxCell>
        <mxCell id="ji7oat9t6ZDJD498M_jr-162" value="insert data" style="text;html=1;align=center;verticalAlign=middle;resizable=0;points=[];autosize=1;strokeColor=none;fillColor=none;" vertex="1" parent="1">
          <mxGeometry x="2319" y="2082" width="80" height="30" as="geometry" />
        </mxCell>
        <mxCell id="ji7oat9t6ZDJD498M_jr-163" value="(1)" style="text;html=1;align=center;verticalAlign=middle;resizable=0;points=[];autosize=1;strokeColor=none;fillColor=none;" vertex="1" parent="1">
          <mxGeometry x="923" y="1710" width="40" height="30" as="geometry" />
        </mxCell>
        <mxCell id="ji7oat9t6ZDJD498M_jr-164" value="(2)" style="text;html=1;align=center;verticalAlign=middle;resizable=0;points=[];autosize=1;strokeColor=none;fillColor=none;" vertex="1" parent="1">
          <mxGeometry x="1318" y="1938.7199999999998" width="40" height="30" as="geometry" />
        </mxCell>
        <mxCell id="ji7oat9t6ZDJD498M_jr-165" value="(3)" style="text;html=1;align=center;verticalAlign=middle;resizable=0;points=[];autosize=1;strokeColor=none;fillColor=none;" vertex="1" parent="1">
          <mxGeometry x="1893.74" y="1901" width="40" height="30" as="geometry" />
        </mxCell>
        <mxCell id="ji7oat9t6ZDJD498M_jr-166" value="(4)" style="text;html=1;align=center;verticalAlign=middle;resizable=0;points=[];autosize=1;strokeColor=none;fillColor=none;" vertex="1" parent="1">
          <mxGeometry x="1904" y="1966" width="40" height="30" as="geometry" />
        </mxCell>
        <mxCell id="ji7oat9t6ZDJD498M_jr-167" value="(5)" style="text;html=1;align=center;verticalAlign=middle;resizable=0;points=[];autosize=1;strokeColor=none;fillColor=none;" vertex="1" parent="1">
          <mxGeometry x="2302" y="1816" width="40" height="30" as="geometry" />
        </mxCell>
        <mxCell id="ji7oat9t6ZDJD498M_jr-168" value="(6)" style="text;html=1;align=center;verticalAlign=middle;resizable=0;points=[];autosize=1;strokeColor=none;fillColor=none;" vertex="1" parent="1">
          <mxGeometry x="1919.75" y="2010" width="40" height="30" as="geometry" />
        </mxCell>
        <mxCell id="ji7oat9t6ZDJD498M_jr-169" value="(7)" style="text;html=1;align=center;verticalAlign=middle;resizable=0;points=[];autosize=1;strokeColor=none;fillColor=none;" vertex="1" parent="1">
          <mxGeometry x="2330" y="2027.4099999999999" width="40" height="30" as="geometry" />
        </mxCell>
        <mxCell id="ji7oat9t6ZDJD498M_jr-170" value="(4.5)" style="text;html=1;align=center;verticalAlign=middle;resizable=0;points=[];autosize=1;strokeColor=none;fillColor=none;" vertex="1" parent="1">
          <mxGeometry x="1900" y="2077.41" width="50" height="30" as="geometry" />
        </mxCell>
        <mxCell id="ji7oat9t6ZDJD498M_jr-171" value="(8)" style="text;html=1;align=center;verticalAlign=middle;resizable=0;points=[];autosize=1;strokeColor=none;fillColor=none;" vertex="1" parent="1">
          <mxGeometry x="2027.25" y="2087.41" width="40" height="30" as="geometry" />
        </mxCell>
        <mxCell id="ji7oat9t6ZDJD498M_jr-172" value="(9)" style="text;html=1;align=center;verticalAlign=middle;resizable=0;points=[];autosize=1;strokeColor=none;fillColor=none;" vertex="1" parent="1">
          <mxGeometry x="2298" y="2104" width="40" height="30" as="geometry" />
        </mxCell>
        <mxCell id="ji7oat9t6ZDJD498M_jr-173" value="(10)" style="text;html=1;align=center;verticalAlign=middle;resizable=0;points=[];autosize=1;strokeColor=none;fillColor=none;" vertex="1" parent="1">
          <mxGeometry x="2298" y="2081.99" width="40" height="30" as="geometry" />
        </mxCell>
        <mxCell id="ji7oat9t6ZDJD498M_jr-174" value="" style="edgeStyle=none;orthogonalLoop=1;jettySize=auto;html=1;rounded=0;endArrow=none;endFill=0;strokeColor=#CC6600;strokeWidth=3;" edge="1" parent="1">
          <mxGeometry width="100" relative="1" as="geometry">
            <mxPoint x="892.5" y="2134.8199999999997" as="sourcePoint" />
            <mxPoint x="992.5" y="2134.8199999999997" as="targetPoint" />
            <Array as="points" />
          </mxGeometry>
        </mxCell>
        <mxCell id="ji7oat9t6ZDJD498M_jr-175" value="crocus" style="text;html=1;align=center;verticalAlign=middle;resizable=0;points=[];autosize=1;strokeColor=none;fillColor=none;" vertex="1" parent="1">
          <mxGeometry x="822.5" y="2117.1299999999997" width="60" height="30" as="geometry" />
        </mxCell>
        <mxCell id="ji7oat9t6ZDJD498M_jr-176" value="" style="edgeStyle=none;orthogonalLoop=1;jettySize=auto;html=1;rounded=0;endArrow=none;endFill=0;strokeColor=#000000;strokeWidth=3;" edge="1" parent="1">
          <mxGeometry width="100" relative="1" as="geometry">
            <mxPoint x="892.5" y="2114.41" as="sourcePoint" />
            <mxPoint x="992.5" y="2114.41" as="targetPoint" />
            <Array as="points" />
          </mxGeometry>
        </mxCell>
        <mxCell id="ji7oat9t6ZDJD498M_jr-177" value="kafka" style="text;html=1;align=center;verticalAlign=middle;resizable=0;points=[];autosize=1;strokeColor=none;fillColor=none;" vertex="1" parent="1">
          <mxGeometry x="824.5" y="2097.1299999999997" width="50" height="30" as="geometry" />
        </mxCell>
        <mxCell id="ji7oat9t6ZDJD498M_jr-182" value="" style="shape=image;html=1;verticalAlign=top;verticalLabelPosition=bottom;labelBackgroundColor=none;imageAspect=0;aspect=fixed;image=https://cdn4.iconfinder.com/data/icons/evil-icons-user-interface/64/clock-128.png" vertex="1" parent="1">
          <mxGeometry x="2737.58" y="1483.62" width="34.42" height="34.42" as="geometry" />
        </mxCell>
        <mxCell id="ji7oat9t6ZDJD498M_jr-183" value="data exposure" style="text;html=1;align=center;verticalAlign=middle;resizable=0;points=[];autosize=1;strokeColor=none;fillColor=none;" vertex="1" parent="1">
          <mxGeometry x="2772" y="1493.29" width="100" height="30" as="geometry" />
        </mxCell>
        <mxCell id="ji7oat9t6ZDJD498M_jr-226" value="&lt;b&gt;CMB&lt;/b&gt;" style="rounded=1;whiteSpace=wrap;html=1;verticalAlign=middle;align=center;arcSize=0;fontSize=20;spacingLeft=0;fillColor=#e1d5e7;strokeColor=#9673a6;" vertex="1" parent="1">
          <mxGeometry x="3018.69" y="1942" width="377.96" height="71" as="geometry" />
        </mxCell>
        <mxCell id="ji7oat9t6ZDJD498M_jr-227" value="&lt;b&gt;CMX&lt;/b&gt;" style="rounded=1;whiteSpace=wrap;html=1;verticalAlign=middle;align=center;arcSize=0;fontSize=20;spacingLeft=0;fillColor=#e1d5e7;strokeColor=#9673a6;" vertex="1" parent="1">
          <mxGeometry x="3018" y="2027" width="377.96" height="71" as="geometry" />
        </mxCell>
        <mxCell id="ji7oat9t6ZDJD498M_jr-228" value="&lt;b&gt;PRR&lt;/b&gt;" style="rounded=1;whiteSpace=wrap;html=1;verticalAlign=middle;align=center;arcSize=0;fontSize=20;spacingLeft=0;fillColor=#e1d5e7;strokeColor=#9673a6;" vertex="1" parent="1">
          <mxGeometry x="3018" y="2111.78" width="377.96" height="71" as="geometry" />
        </mxCell>
        <mxCell id="ji7oat9t6ZDJD498M_jr-229" value="&lt;b&gt;XHB&lt;/b&gt;" style="rounded=1;whiteSpace=wrap;html=1;verticalAlign=middle;align=center;arcSize=0;fontSize=20;spacingLeft=0;fillColor=#e1d5e7;strokeColor=#9673a6;" vertex="1" parent="1">
          <mxGeometry x="3840" y="1942" width="377.96" height="71" as="geometry" />
        </mxCell>
        <mxCell id="ji7oat9t6ZDJD498M_jr-230" value="&lt;b&gt;MI1&lt;/b&gt;" style="rounded=1;whiteSpace=wrap;html=1;verticalAlign=middle;align=center;arcSize=0;fontSize=20;spacingLeft=0;fillColor=#e1d5e7;strokeColor=#9673a6;" vertex="1" parent="1">
          <mxGeometry x="3430" y="2111.78" width="377.96" height="71" as="geometry" />
        </mxCell>
        <mxCell id="ji7oat9t6ZDJD498M_jr-231" value="&lt;b&gt;DGT&lt;/b&gt;" style="rounded=1;whiteSpace=wrap;html=1;verticalAlign=middle;align=center;arcSize=0;fontSize=20;spacingLeft=0;fillColor=#e1d5e7;strokeColor=#9673a6;" vertex="1" parent="1">
          <mxGeometry x="3430" y="1942" width="377.96" height="71" as="geometry" />
        </mxCell>
        <mxCell id="ji7oat9t6ZDJD498M_jr-233" value="&lt;b&gt;DATA&lt;/b&gt;" style="rounded=1;whiteSpace=wrap;html=1;verticalAlign=middle;align=center;arcSize=0;fontSize=20;spacingLeft=0;fillColor=#e1d5e7;strokeColor=#9673a6;" vertex="1" parent="1">
          <mxGeometry x="3430" y="2027.4099999999999" width="377.96" height="71" as="geometry" />
        </mxCell>
        <mxCell id="ji7oat9t6ZDJD498M_jr-235" value="&lt;b&gt;MODEL&lt;/b&gt;" style="rounded=1;whiteSpace=wrap;html=1;verticalAlign=middle;align=center;arcSize=0;fontSize=20;spacingLeft=0;fillColor=#e1d5e7;strokeColor=#9673a6;" vertex="1" parent="1">
          <mxGeometry x="3840" y="2027.41" width="377.96" height="71" as="geometry" />
        </mxCell>
        <mxCell id="ji7oat9t6ZDJD498M_jr-67" style="edgeStyle=orthogonalEdgeStyle;rounded=0;orthogonalLoop=1;jettySize=auto;html=1;strokeColor=#FF3333;startArrow=classic;startFill=1;endArrow=none;endFill=0;" edge="1" parent="1" source="ji7oat9t6ZDJD498M_jr-72" target="ji7oat9t6ZDJD498M_jr-128">
          <mxGeometry relative="1" as="geometry">
            <Array as="points">
              <mxPoint x="2990" y="1460" />
              <mxPoint x="2990" y="1520" />
            </Array>
            <mxPoint x="3110.0000000000005" y="1343.38" as="targetPoint" />
          </mxGeometry>
        </mxCell>
        <mxCell id="ji7oat9t6ZDJD498M_jr-240" value="" style="image;aspect=fixed;html=1;points=[];align=center;fontSize=12;image=img/lib/azure2/general/Scheduler.svg;" vertex="1" parent="1">
          <mxGeometry x="3382.62" y="1312" width="20" height="20" as="geometry" />
        </mxCell>
        <mxCell id="ji7oat9t6ZDJD498M_jr-247" value="" style="editableCssRules=.*;html=1;shape=image;verticalLabelPosition=bottom;labelBackgroundColor=#ffffff;verticalAlign=top;aspect=fixed;imageAspect=0;image=data:image/svg+xml,PHN2ZyB4bWxucz0iaHR0cDovL3d3dy53My5vcmcvMjAwMC9zdmciIHhtbG5zOnY9Imh0dHBzOi8vdmVjdGEuaW8vbmFubyIgd2lkdGg9IjE0LjY1OTk5OTg0NzQxMjExIiBoZWlnaHQ9IjIwIiB2aWV3Qm94PSIwIDAgMTQuNjU5OTk5ODQ3NDEyMTEgMjAiPiYjeGE7CTxzdHlsZSB0eXBlPSJ0ZXh0L2NzcyI+JiN4YTsJLnN0MHtmaWxsOiM0Mjg1ZjQ7fSYjeGE7CS5zdDF7ZmlsbDojNjY5ZGY2O30mI3hhOwkuc3Qye2ZpbGw6I2FlY2JmYTt9JiN4YTsJPC9zdHlsZT4mI3hhOwk8c3R5bGU+JiN4YTsJCS5Ee2ZpbGwtcnVsZTpldmVub2RkfSYjeGE7CTwvc3R5bGU+JiN4YTsJPHBhdGggZD0iTTcuMzMgMTUuMzV2LTMuMDFMMCA4LjQ0djMuMDF6bTAgNC42NXYtMy4wMUwwIDEzLjA5djMuMDF6IiBjbGFzcz0ic3QyIEQiLz4mI3hhOwk8cGF0aCBkPSJNMTQuNjYgOC40NGwtNy4zMyAzLjl2My4wMWw3LjMzLTMuOXptMCA0LjY1bC03LjMzIDMuOVYyMGw3LjMzLTMuOXoiIGNsYXNzPSJzdDEgRCIvPiYjeGE7CTxwYXRoIGQ9Ik03LjMzIDB2My4wMWw3LjMzIDMuOVYzLjl6IiBjbGFzcz0ic3QwIEQiLz4mI3hhOwk8cGF0aCBkPSJNMCA2LjkxbDcuMzMtMy45VjBMMCAzLjl6IiBjbGFzcz0iRCBzdDEiLz4mI3hhOwk8cGF0aCBkPSJNNy4zMyAxMC43OVY3Ljc3TDAgMy44N3YzLjAyeiIgY2xhc3M9IkQgc3QyIi8+JiN4YTsJPHBhdGggZD0iTTE0LjY2IDMuODdsLTcuMzMgMy45djMuMDJsNy4zMy0zLjl6IiBjbGFzcz0iRCBzdDEiLz4mI3hhOzwvc3ZnPg==;" vertex="1" parent="1">
          <mxGeometry x="3173" y="1547.5" width="22.5" height="30" as="geometry" />
        </mxCell>
        <mxCell id="ji7oat9t6ZDJD498M_jr-249" value="" style="sketch=0;html=1;verticalAlign=top;labelPosition=center;verticalLabelPosition=bottom;align=center;spacingTop=-6;fontSize=11;fontStyle=1;fontColor=#999999;shape=image;aspect=fixed;imageAspect=0;image=data:image/svg+xml,PHN2ZyB4bWxucz0iaHR0cDovL3d3dy53My5vcmcvMjAwMC9zdmciIHhtbG5zOnY9Imh0dHBzOi8vdmVjdGEuaW8vbmFubyIgd2lkdGg9IjIwIiBoZWlnaHQ9IjE2IiB2aWV3Qm94PSIwIDAgMjAgMTYiPiYjeGE7CTxzdHlsZSB0eXBlPSJ0ZXh0L2NzcyI+JiN4YTsJLnN0MHtmaWxsOiM0Mjg1ZjQ7fSYjeGE7CS5zdDF7ZmlsbDojNjY5ZGY2O30mI3hhOwkuc3Qye2ZpbGw6I2FlY2JmYTt9JiN4YTsJLnN0M3tmaWxsOiNmZmY7fSYjeGE7CTwvc3R5bGU+JiN4YTsJPHBhdGggY2xhc3M9InN0MiIgZD0iTTAgMGgyMHY3SDB6Ii8+JiN4YTsJPHBhdGggY2xhc3M9InN0MSIgZD0iTTE4IDBoMnY3aC0yeiIvPiYjeGE7CTxwYXRoIGNsYXNzPSJzdDAiIGQ9Ik0xOCA3bDItN2gtMnoiLz4mI3hhOwk8cGF0aCBjbGFzcz0ic3QxIiBkPSJNMCAwaDJ2N0gweiIvPiYjeGE7CTxnIGNsYXNzPSJzdDMiPiYjeGE7CQk8cGF0aCBkPSJNNCAzaDZ2MUg0eiIvPiYjeGE7CQk8cmVjdCB4PSIxMyIgeT0iMiIgd2lkdGg9IjMiIGhlaWdodD0iMyIgcng9IjEuNSIvPiYjeGE7CTwvZz4mI3hhOwk8cGF0aCBjbGFzcz0ic3QyIiBkPSJNMCA5aDIwdjdIMHoiLz4mI3hhOwk8cGF0aCBjbGFzcz0ic3QxIiBkPSJNMTggOWgydjdoLTJ6Ii8+JiN4YTsJPHBhdGggY2xhc3M9InN0MCIgZD0iTTE4IDE2bDItN2gtMnoiLz4mI3hhOwk8cGF0aCBjbGFzcz0ic3QxIiBkPSJNMCA5aDJ2N0gweiIvPiYjeGE7CTxnIGNsYXNzPSJzdDMiPiYjeGE7CQk8cGF0aCBkPSJNNCAxMmg2djFINHoiLz4mI3hhOwkJPHJlY3QgeD0iMTMiIHk9IjExIiB3aWR0aD0iMyIgaGVpZ2h0PSIzIiByeD0iMS41Ii8+JiN4YTsJPC9nPiYjeGE7PC9zdmc+;container=0;" vertex="1" parent="1">
          <mxGeometry x="3534.84" y="1570" width="31.67" height="25.63" as="geometry" />
        </mxCell>
        <mxCell id="ji7oat9t6ZDJD498M_jr-250" value="" style="sketch=0;html=1;verticalAlign=top;labelPosition=center;verticalLabelPosition=bottom;align=center;spacingTop=-6;fontSize=11;fontStyle=1;fontColor=#999999;shape=image;aspect=fixed;imageAspect=0;image=data:image/svg+xml,PHN2ZyB4bWxucz0iaHR0cDovL3d3dy53My5vcmcvMjAwMC9zdmciIHhtbG5zOnY9Imh0dHBzOi8vdmVjdGEuaW8vbmFubyIgd2lkdGg9IjM2NS40NjQ5OTY3NzA0MjQ5MyIgaGVpZ2h0PSIzNzkuMjIyOTk0NDYzNTc3OTUiIHZpZXdCb3g9IjAgMCA5Ni42OTU5OTkxNDU1MDc4MSAxMDAuMzM1OTk4NTM1MTU2MjUiPiYjeGE7PHN0eWxlIHR5cGU9InRleHQvY3NzIj4mI3hhOwkuc3Qwe2ZpbGw6IzQyODVmNDt9JiN4YTsJLnN0MXtmaWxsOiNhZWNiZmE7fSYjeGE7PC9zdHlsZT4mI3hhOwk8cGF0aCBjbGFzcz0ic3QwIiBkPSJNMjkuNzk0IDEwMC4zMzZMNDYuOTIgNTAuMTY4aDQ5Ljc3NnpNMCA5OS42NzFsMTIuOTc2LTQ5LjUwMkgyOS4yMkwxNi44OTcgOTIuMDU0eiIvPiYjeGE7CTxwYXRoIGNsYXNzPSJzdDEiIGQ9Ik0yOS43OTQgMEw0Ni45MiA1MC4xNjhoNDkuNzc2ek0wIC42NjZsMTIuOTc2IDQ5LjUwMkgyOS4yMkwxNi44OTcgOC4yODN6Ii8+JiN4YTs8L3N2Zz4=;" vertex="1" parent="1">
          <mxGeometry x="3214.1099999999997" y="1720.04" width="20.24" height="25" as="geometry" />
        </mxCell>
        <mxCell id="ji7oat9t6ZDJD498M_jr-251" value="" style="sketch=0;html=1;verticalAlign=top;labelPosition=center;verticalLabelPosition=bottom;align=center;spacingTop=-6;fontSize=11;fontStyle=1;fontColor=#999999;shape=image;aspect=fixed;imageAspect=0;image=data:image/svg+xml,PHN2ZyB4bWxucz0iaHR0cDovL3d3dy53My5vcmcvMjAwMC9zdmciIHhtbG5zOnY9Imh0dHBzOi8vdmVjdGEuaW8vbmFubyIgd2lkdGg9IjM2NS40NjQ5OTY3NzA0MjQ5MyIgaGVpZ2h0PSIzNzkuMjIyOTk0NDYzNTc3OTUiIHZpZXdCb3g9IjAgMCA5Ni42OTU5OTkxNDU1MDc4MSAxMDAuMzM1OTk4NTM1MTU2MjUiPiYjeGE7PHN0eWxlIHR5cGU9InRleHQvY3NzIj4mI3hhOwkuc3Qwe2ZpbGw6IzQyODVmNDt9JiN4YTsJLnN0MXtmaWxsOiNhZWNiZmE7fSYjeGE7PC9zdHlsZT4mI3hhOwk8cGF0aCBjbGFzcz0ic3QwIiBkPSJNMjkuNzk0IDEwMC4zMzZMNDYuOTIgNTAuMTY4aDQ5Ljc3NnpNMCA5OS42NzFsMTIuOTc2LTQ5LjUwMkgyOS4yMkwxNi44OTcgOTIuMDU0eiIvPiYjeGE7CTxwYXRoIGNsYXNzPSJzdDEiIGQ9Ik0yOS43OTQgMEw0Ni45MiA1MC4xNjhoNDkuNzc2ek0wIC42NjZsMTIuOTc2IDQ5LjUwMkgyOS4yMkwxNi44OTcgOC4yODN6Ii8+JiN4YTs8L3N2Zz4=;" vertex="1" parent="1">
          <mxGeometry x="3489.9999999999995" y="1720.0400000000002" width="20.24" height="25" as="geometry" />
        </mxCell>
        <mxCell id="ji7oat9t6ZDJD498M_jr-252" value="&lt;u style=&quot;color: rgb(51, 153, 255);&quot;&gt;GCF&lt;/u&gt;&lt;br&gt;&lt;div style=&quot;text-align: left;&quot;&gt;&lt;span style=&quot;background-color: transparent; color: light-dark(rgb(0, 0, 0), rgb(255, 255, 255));&quot;&gt;&lt;br&gt;&lt;/span&gt;&lt;/div&gt;&lt;div style=&quot;text-align: left;&quot;&gt;&lt;span style=&quot;background-color: transparent; color: light-dark(rgb(0, 0, 0), rgb(255, 255, 255));&quot;&gt;-&amp;nbsp;&lt;/span&gt;&lt;span style=&quot;background-color: transparent; color: light-dark(rgb(0, 0, 0), rgb(255, 255, 255));&quot;&gt;python script to&amp;nbsp;&lt;/span&gt;&lt;span style=&quot;background-color: transparent; color: light-dark(rgb(0, 0, 0), rgb(255, 255, 255));&quot;&gt;generate files and save them in GCS&lt;/span&gt;&lt;/div&gt;" style="rounded=1;whiteSpace=wrap;html=1;" vertex="1" parent="1">
          <mxGeometry x="3542.07" y="1434.5" width="320" height="70" as="geometry" />
        </mxCell>
        <mxCell id="ji7oat9t6ZDJD498M_jr-259" value="OnPrem" style="rounded=0;whiteSpace=wrap;html=1;fillColor=#d5e8d4;strokeColor=#82b366;align=left;verticalAlign=top;" vertex="1" parent="1">
          <mxGeometry x="3959.31" y="1282" width="259.58" height="378" as="geometry" />
        </mxCell>
        <mxCell id="ji7oat9t6ZDJD498M_jr-33" value="Server&lt;br&gt;(Credit reseau)" style="image;points=[];aspect=fixed;html=1;align=center;shadow=0;dashed=0;image=img/lib/allied_telesis/computer_and_terminals/Server_Desktop.svg;labelBackgroundColor=none;" vertex="1" parent="1">
          <mxGeometry x="4060.0000000000005" y="1450.0000000000002" width="62" height="78.59" as="geometry" />
        </mxCell>
        <mxCell id="ji7oat9t6ZDJD498M_jr-29" style="edgeStyle=orthogonalEdgeStyle;rounded=0;orthogonalLoop=1;jettySize=auto;html=1;strokeColor=#009900;" edge="1" parent="1" source="ji7oat9t6ZDJD498M_jr-30">
          <mxGeometry relative="1" as="geometry">
            <mxPoint x="4060" y="1518.92" as="targetPoint" />
            <Array as="points">
              <mxPoint x="3990" y="1610" />
              <mxPoint x="3990" y="1519" />
            </Array>
          </mxGeometry>
        </mxCell>
        <mxCell id="ji7oat9t6ZDJD498M_jr-265" value="" style="shape=image;verticalLabelPosition=bottom;labelBackgroundColor=default;verticalAlign=top;aspect=fixed;imageAspect=0;image=data:image/svg+xml,PHN2ZyB4bWxuczp4bGluaz0iaHR0cDovL3d3dy53My5vcmcvMTk5OS94bGluayIgeG1sbnM9Imh0dHA6Ly93d3cudzMub3JnLzIwMDAvc3ZnIiBwcmVzZXJ2ZUFzcGVjdFJhdGlvPSJ4TWlkWU1pZCIgdmVyc2lvbj0iMS4xIiB2aWV3Qm94PSIwIDAgMjU2IDIzMS4yMzY4MTY0MDYyNSIgaGVpZ2h0PSIyMzEuMjM2ODE2NDA2MjUiIHdpZHRoPSIyNTYiPiYjeGE7ICAgIDxkZWZzPiYjeGE7ICAgICAgICA8cGF0aCBpZD0icGF0aC0xIiBkPSJNMjUyLjkyNTg1NCwxMDMuMjM3MDc3IEwyMDAuMzI3MzQ0LDExLjc1OTY2NyBDMTk2LjMwMjU3OSw0LjYyMjI1NzAzIDE4OC44MDA1NCwwLjE0ODQyNDcyNiAxODAuNjA3OTAyLDAgTDc1LjM5MDg4MTQsMCBDNjcuMTk3MDkxMiwwLjE0NDM4NTQ4IDU5LjY5MzE5ODQsNC42MTkzMjM2MyA1NS42NzE0Mzk4LDExLjc1OTY2NyBMMy4wNTI5Mjk4NSwxMDIuOTk3MDgzIEMtMS4wMTc2NDMyOCwxMTAuMDgwMzczIC0xLjAxNzY0MzI4LDExOC43OTMxNDYgMy4wNTI5Mjk4NSwxMjUuODc2NDM2IEw1NS42NTE0NDA0LDIxNy44NzM4MyBDNTkuNjMxOTc1NSwyMjUuMTEyNzA3IDY3LjExNTkwNTIsMjI5LjczNTEzNCA3NS4zNzA4ODIsMjMwLjA1MzQ4NiBMMTgwLjU4NzkwMywyMzAuMDUzNDg2IEMxODguODQyNDQyLDIyOS43NzAxNDQgMTk2LjMzOTgwOSwyMjUuMTY2ODk2IDIwMC4zMjczNDQsMjE3LjkzMzgyOSBMMjUyLjkyNTg1NCwxMjYuNDU2NDE5IEMyNTcuMDI0NzE1LDExOS4yNTkzMTEgMjU3LjAyNDcxNSwxMTAuNDM0MTg1IDI1Mi45MjU4NTQsMTAzLjIzNzA3NyBaIi8+JiN4YTsgICAgPC9kZWZzPiYjeGE7CQk8Zz4mI3hhOwkJCQk8bWFzayBmaWxsPSJ3aGl0ZSIgaWQ9Im1hc2stMiI+JiN4YTsJCQkJCQk8dXNlIHhsaW5rOmhyZWY9IiNwYXRoLTEiLz4mI3hhOwkJCQk8L21hc2s+JiN4YTsJCQkJPGcgZmlsbC1ydWxlPSJub256ZXJvIi8+JiN4YTsJCQkJPHBhdGggbWFzaz0idXJsKCNtYXNrLTIpIiBmaWxsLXJ1bGU9Im5vbnplcm8iIGZpbGw9IiM0Mjg1RjQiIGQ9Ik0yNTIuOTI1ODU0LDEwMy4yMzcwNzcgTDIwMC4zMjczNDQsMTEuNzU5NjY3IEMxOTYuMzAyNTc5LDQuNjIyMjU3MDMgMTg4LjgwMDU0LDAuMTQ4NDI0NzI2IDE4MC42MDc5MDIsMCBMNzUuMzkwODgxNCwwIEM2Ny4xOTcwOTEyLDAuMTQ0Mzg1NDggNTkuNjkzMTk4NCw0LjYxOTMyMzYzIDU1LjY3MTQzOTgsMTEuNzU5NjY3IEwzLjA1MjkyOTg1LDEwMi45OTcwODMgQy0xLjAxNzY0MzI4LDExMC4wODAzNzMgLTEuMDE3NjQzMjgsMTE4Ljc5MzE0NiAzLjA1MjkyOTg1LDEyNS44NzY0MzYgTDU1LjY1MTQ0MDQsMjE3Ljg3MzgzIEM1OS42MzE5NzU1LDIyNS4xMTI3MDcgNjcuMTE1OTA1MiwyMjkuNzM1MTM0IDc1LjM3MDg4MiwyMzAuMDUzNDg2IEwxODAuNTg3OTAzLDIzMC4wNTM0ODYgQzE4OC44NDI0NDIsMjI5Ljc3MDE0NCAxOTYuMzM5ODA5LDIyNS4xNjY4OTYgMjAwLjMyNzM0NCwyMTcuOTMzODI5IEwyNTIuOTI1ODU0LDEyNi40NTY0MTkgQzI1Ny4wMjQ3MTUsMTE5LjI1OTMxMSAyNTcuMDI0NzE1LDExMC40MzQxODUgMjUyLjkyNTg1NCwxMDMuMjM3MDc3IFoiLz4mI3hhOwkJCQk8cGF0aCBtYXNrPSJ1cmwoI21hc2stMikiIG9wYWNpdHk9IjAuMDcwMDAwMDAwMyIgZmlsbC1ydWxlPSJub256ZXJvIiBmaWxsPSIjMDAwMDAwIiBkPSJNMTg3LjE2NzYwNSw4NC43MzE2MDMgTDE3OS45MTU3MTEsOTIuNjQwOTQ4NSBMMTgxLjU0OTM3OSwxMzkuNjM4Nzk3IEwxNzQuNjc2MDE5LDE0OS42MDAxOSBMMTcwLjY5MTQ2MiwxNDUuNjE1NjMzIEwxNzQuMzU3MjU0LDE0NS42MTU2MzMgTDE3NC4zNTcyNTQsMTI5LjMxODc5NSBMMTU2Ljc2NTQzNSwxMTEuNzI2OTc2IEwxNDMuNDY4NzQ2LDExOC4zNzMwNDcgTDk5LjM2Nzg5MjksNzQuMTcyNTI3MSBMNzguMTMwMjA0NSw4NS41NDg0MzcxIEw3NS41MDAzOTcsMTA3LjU4MzAzNyBMODIuOTUxNTE4NCwxNDcuOTA2NzUzIEw5My43NDk2Njc3LDE1OC40ODU3NTIgTDg4LjgyODczOTksMTY1LjQ3ODY0OSBMMTUzLjA3NjA5OCwyMzEuMjM2ODE2IEwxNzkuOTE1NzExLDIzMS4yMzY4MTYgQzE4OC4xMzg2MTQsMjMwLjk1NDU2IDE5Ny4wNDQyNzYsMjI1LjU2NTY5OCAyMDEuMDE2NTI4LDIxOC4zNjAzNTIgTDI0NC43OTUzMzYsMTQyLjM1NjkzNCBMMTg3LjE2NzYwNSw4NC43MzE2MDMgWiIvPiYjeGE7CQkJCTxwb2x5Z29uIHBvaW50cz0iODguODI4NzM5OSAxNjUuNDc4NjQ5IDk5LjM2Nzg5MjkgMTU0LjkzOTQ5NiA4My41NjkxMjQ3IDEzOS4xNDA3MjggODMuNTY5MTI0NyA4OS45NzEyOTUzIDk5LjM2Nzg5MjkgNzQuMTcyNTI3MSA4OC44Mjg3Mzk5IDYzLjYzMzM3NDEgNjcuNzMwNTExIDg0LjczMTYwMyA2Ny43MzA1MTEgMTQ0LjM4MDQyIiBtYXNrPSJ1cmwoI21hc2stMikiIGZpbGwtcnVsZT0ibm9uemVybyIgZmlsbD0iI0ZGRkZGRiIvPiYjeGE7CQkJCTxjaXJjbGUgcj0iNy40NzEwNDQyMyIgY3k9IjExNC41NTYwMTIiIGN4PSIxMDUuMTQ1NSIgbWFzaz0idXJsKCNtYXNrLTIpIiBmaWxsLXJ1bGU9Im5vbnplcm8iIGZpbGw9IiNGRkZGRkYiLz4mI3hhOwkJCQk8Y2lyY2xlIHI9IjcuNDcxMDQ0MjMiIGN5PSIxMTQuNTU2MDEyIiBjeD0iMTI3LjQ5ODg2NSIgbWFzaz0idXJsKCNtYXNrLTIpIiBmaWxsLXJ1bGU9Im5vbnplcm8iIGZpbGw9IiNGRkZGRkYiLz4mI3hhOwkJCQk8Y2lyY2xlIHI9IjcuNDcxMDQ0MjMiIGN5PSIxMTQuNTU2MDEyIiBjeD0iMTQ5Ljg1MjIyOSIgbWFzaz0idXJsKCNtYXNrLTIpIiBmaWxsLXJ1bGU9Im5vbnplcm8iIGZpbGw9IiNGRkZGRkYiLz4mI3hhOwkJCQk8cG9seWdvbiBwb2ludHM9IjE2Ni4wNjkzNzYgNjMuNjMzMzc0MSAxNTUuNTMwMjIzIDc0LjE3MjUyNzEgMTcxLjMyODk5MSA4OS45NzEyOTUzIDE3MS4zMjg5OTEgMTM5LjE0MDcyOCAxNTUuNTMwMjIzIDE1NC45Mzk0OTYgMTY2LjA2OTM3NiAxNjUuNDc4NjQ5IDE4Ny4xNjc2MDUgMTQ0LjM4MDQyIDE4Ny4xNjc2MDUgODQuNzMxNjAzIiBtYXNrPSJ1cmwoI21hc2stMikiIGZpbGwtcnVsZT0ibm9uemVybyIgZmlsbD0iI0ZGRkZGRiIvPiYjeGE7CQk8L2c+JiN4YTs8L3N2Zz4=;" vertex="1" parent="1">
          <mxGeometry x="3528.84" y="1421.5" width="27.83" height="25.12" as="geometry" />
        </mxCell>
        <mxCell id="ji7oat9t6ZDJD498M_jr-266" value="" style="shape=image;verticalLabelPosition=bottom;labelBackgroundColor=default;verticalAlign=top;aspect=fixed;imageAspect=0;image=data:image/svg+xml,PHN2ZyB4bWxuczp4bGluaz0iaHR0cDovL3d3dy53My5vcmcvMTk5OS94bGluayIgeG1sbnM9Imh0dHA6Ly93d3cudzMub3JnLzIwMDAvc3ZnIiBwcmVzZXJ2ZUFzcGVjdFJhdGlvPSJ4TWlkWU1pZCIgdmVyc2lvbj0iMS4xIiB2aWV3Qm94PSIwIDAgMjU2IDIzMS4yMzY4MTY0MDYyNSIgaGVpZ2h0PSIyMzEuMjM2ODE2NDA2MjUiIHdpZHRoPSIyNTYiPiYjeGE7ICAgIDxkZWZzPiYjeGE7ICAgICAgICA8cGF0aCBpZD0icGF0aC0xIiBkPSJNMjUyLjkyNTg1NCwxMDMuMjM3MDc3IEwyMDAuMzI3MzQ0LDExLjc1OTY2NyBDMTk2LjMwMjU3OSw0LjYyMjI1NzAzIDE4OC44MDA1NCwwLjE0ODQyNDcyNiAxODAuNjA3OTAyLDAgTDc1LjM5MDg4MTQsMCBDNjcuMTk3MDkxMiwwLjE0NDM4NTQ4IDU5LjY5MzE5ODQsNC42MTkzMjM2MyA1NS42NzE0Mzk4LDExLjc1OTY2NyBMMy4wNTI5Mjk4NSwxMDIuOTk3MDgzIEMtMS4wMTc2NDMyOCwxMTAuMDgwMzczIC0xLjAxNzY0MzI4LDExOC43OTMxNDYgMy4wNTI5Mjk4NSwxMjUuODc2NDM2IEw1NS42NTE0NDA0LDIxNy44NzM4MyBDNTkuNjMxOTc1NSwyMjUuMTEyNzA3IDY3LjExNTkwNTIsMjI5LjczNTEzNCA3NS4zNzA4ODIsMjMwLjA1MzQ4NiBMMTgwLjU4NzkwMywyMzAuMDUzNDg2IEMxODguODQyNDQyLDIyOS43NzAxNDQgMTk2LjMzOTgwOSwyMjUuMTY2ODk2IDIwMC4zMjczNDQsMjE3LjkzMzgyOSBMMjUyLjkyNTg1NCwxMjYuNDU2NDE5IEMyNTcuMDI0NzE1LDExOS4yNTkzMTEgMjU3LjAyNDcxNSwxMTAuNDM0MTg1IDI1Mi45MjU4NTQsMTAzLjIzNzA3NyBaIi8+JiN4YTsgICAgPC9kZWZzPiYjeGE7CQk8Zz4mI3hhOwkJCQk8bWFzayBmaWxsPSJ3aGl0ZSIgaWQ9Im1hc2stMiI+JiN4YTsJCQkJCQk8dXNlIHhsaW5rOmhyZWY9IiNwYXRoLTEiLz4mI3hhOwkJCQk8L21hc2s+JiN4YTsJCQkJPGcgZmlsbC1ydWxlPSJub256ZXJvIi8+JiN4YTsJCQkJPHBhdGggbWFzaz0idXJsKCNtYXNrLTIpIiBmaWxsLXJ1bGU9Im5vbnplcm8iIGZpbGw9IiM0Mjg1RjQiIGQ9Ik0yNTIuOTI1ODU0LDEwMy4yMzcwNzcgTDIwMC4zMjczNDQsMTEuNzU5NjY3IEMxOTYuMzAyNTc5LDQuNjIyMjU3MDMgMTg4LjgwMDU0LDAuMTQ4NDI0NzI2IDE4MC42MDc5MDIsMCBMNzUuMzkwODgxNCwwIEM2Ny4xOTcwOTEyLDAuMTQ0Mzg1NDggNTkuNjkzMTk4NCw0LjYxOTMyMzYzIDU1LjY3MTQzOTgsMTEuNzU5NjY3IEwzLjA1MjkyOTg1LDEwMi45OTcwODMgQy0xLjAxNzY0MzI4LDExMC4wODAzNzMgLTEuMDE3NjQzMjgsMTE4Ljc5MzE0NiAzLjA1MjkyOTg1LDEyNS44NzY0MzYgTDU1LjY1MTQ0MDQsMjE3Ljg3MzgzIEM1OS42MzE5NzU1LDIyNS4xMTI3MDcgNjcuMTE1OTA1MiwyMjkuNzM1MTM0IDc1LjM3MDg4MiwyMzAuMDUzNDg2IEwxODAuNTg3OTAzLDIzMC4wNTM0ODYgQzE4OC44NDI0NDIsMjI5Ljc3MDE0NCAxOTYuMzM5ODA5LDIyNS4xNjY4OTYgMjAwLjMyNzM0NCwyMTcuOTMzODI5IEwyNTIuOTI1ODU0LDEyNi40NTY0MTkgQzI1Ny4wMjQ3MTUsMTE5LjI1OTMxMSAyNTcuMDI0NzE1LDExMC40MzQxODUgMjUyLjkyNTg1NCwxMDMuMjM3MDc3IFoiLz4mI3hhOwkJCQk8cGF0aCBtYXNrPSJ1cmwoI21hc2stMikiIG9wYWNpdHk9IjAuMDcwMDAwMDAwMyIgZmlsbC1ydWxlPSJub256ZXJvIiBmaWxsPSIjMDAwMDAwIiBkPSJNMTg3LjE2NzYwNSw4NC43MzE2MDMgTDE3OS45MTU3MTEsOTIuNjQwOTQ4NSBMMTgxLjU0OTM3OSwxMzkuNjM4Nzk3IEwxNzQuNjc2MDE5LDE0OS42MDAxOSBMMTcwLjY5MTQ2MiwxNDUuNjE1NjMzIEwxNzQuMzU3MjU0LDE0NS42MTU2MzMgTDE3NC4zNTcyNTQsMTI5LjMxODc5NSBMMTU2Ljc2NTQzNSwxMTEuNzI2OTc2IEwxNDMuNDY4NzQ2LDExOC4zNzMwNDcgTDk5LjM2Nzg5MjksNzQuMTcyNTI3MSBMNzguMTMwMjA0NSw4NS41NDg0MzcxIEw3NS41MDAzOTcsMTA3LjU4MzAzNyBMODIuOTUxNTE4NCwxNDcuOTA2NzUzIEw5My43NDk2Njc3LDE1OC40ODU3NTIgTDg4LjgyODczOTksMTY1LjQ3ODY0OSBMMTUzLjA3NjA5OCwyMzEuMjM2ODE2IEwxNzkuOTE1NzExLDIzMS4yMzY4MTYgQzE4OC4xMzg2MTQsMjMwLjk1NDU2IDE5Ny4wNDQyNzYsMjI1LjU2NTY5OCAyMDEuMDE2NTI4LDIxOC4zNjAzNTIgTDI0NC43OTUzMzYsMTQyLjM1NjkzNCBMMTg3LjE2NzYwNSw4NC43MzE2MDMgWiIvPiYjeGE7CQkJCTxwb2x5Z29uIHBvaW50cz0iODguODI4NzM5OSAxNjUuNDc4NjQ5IDk5LjM2Nzg5MjkgMTU0LjkzOTQ5NiA4My41NjkxMjQ3IDEzOS4xNDA3MjggODMuNTY5MTI0NyA4OS45NzEyOTUzIDk5LjM2Nzg5MjkgNzQuMTcyNTI3MSA4OC44Mjg3Mzk5IDYzLjYzMzM3NDEgNjcuNzMwNTExIDg0LjczMTYwMyA2Ny43MzA1MTEgMTQ0LjM4MDQyIiBtYXNrPSJ1cmwoI21hc2stMikiIGZpbGwtcnVsZT0ibm9uemVybyIgZmlsbD0iI0ZGRkZGRiIvPiYjeGE7CQkJCTxjaXJjbGUgcj0iNy40NzEwNDQyMyIgY3k9IjExNC41NTYwMTIiIGN4PSIxMDUuMTQ1NSIgbWFzaz0idXJsKCNtYXNrLTIpIiBmaWxsLXJ1bGU9Im5vbnplcm8iIGZpbGw9IiNGRkZGRkYiLz4mI3hhOwkJCQk8Y2lyY2xlIHI9IjcuNDcxMDQ0MjMiIGN5PSIxMTQuNTU2MDEyIiBjeD0iMTI3LjQ5ODg2NSIgbWFzaz0idXJsKCNtYXNrLTIpIiBmaWxsLXJ1bGU9Im5vbnplcm8iIGZpbGw9IiNGRkZGRkYiLz4mI3hhOwkJCQk8Y2lyY2xlIHI9IjcuNDcxMDQ0MjMiIGN5PSIxMTQuNTU2MDEyIiBjeD0iMTQ5Ljg1MjIyOSIgbWFzaz0idXJsKCNtYXNrLTIpIiBmaWxsLXJ1bGU9Im5vbnplcm8iIGZpbGw9IiNGRkZGRkYiLz4mI3hhOwkJCQk8cG9seWdvbiBwb2ludHM9IjE2Ni4wNjkzNzYgNjMuNjMzMzc0MSAxNTUuNTMwMjIzIDc0LjE3MjUyNzEgMTcxLjMyODk5MSA4OS45NzEyOTUzIDE3MS4zMjg5OTEgMTM5LjE0MDcyOCAxNTUuNTMwMjIzIDE1NC45Mzk0OTYgMTY2LjA2OTM3NiAxNjUuNDc4NjQ5IDE4Ny4xNjc2MDUgMTQ0LjM4MDQyIDE4Ny4xNjc2MDUgODQuNzMxNjAzIiBtYXNrPSJ1cmwoI21hc2stMikiIGZpbGwtcnVsZT0ibm9uemVybyIgZmlsbD0iI0ZGRkZGRiIvPiYjeGE7CQk8L2c+JiN4YTs8L3N2Zz4=;" vertex="1" parent="1">
          <mxGeometry x="3103.77" y="1422.62" width="27.83" height="25.12" as="geometry" />
        </mxCell>
        <mxCell id="ji7oat9t6ZDJD498M_jr-271" value="trigger" style="text;html=1;align=center;verticalAlign=middle;resizable=0;points=[];autosize=1;strokeColor=none;fillColor=none;" vertex="1" parent="1">
          <mxGeometry x="3600" y="1380" width="60" height="30" as="geometry" />
        </mxCell>
      </root>
    </mxGraphModel>
  </diagram>
</mxfile>
